%TF.GenerationSoftware,KiCad,Pcbnew,9.0.2*%
%TF.CreationDate,2025-10-23T03:25:40+03:00*%
%TF.ProjectId,stlinkv2,73746c69-6e6b-4763-922e-6b696361645f,rev?*%
%TF.SameCoordinates,Original*%
%TF.FileFunction,Soldermask,Top*%
%TF.FilePolarity,Negative*%
%FSLAX46Y46*%
G04 Gerber Fmt 4.6, Leading zero omitted, Abs format (unit mm)*
G04 Created by KiCad (PCBNEW 9.0.2) date 2025-10-23 03:25:40*
%MOMM*%
%LPD*%
G01*
G04 APERTURE LIST*
G04 Aperture macros list*
%AMRoundRect*
0 Rectangle with rounded corners*
0 $1 Rounding radius*
0 $2 $3 $4 $5 $6 $7 $8 $9 X,Y pos of 4 corners*
0 Add a 4 corners polygon primitive as box body*
4,1,4,$2,$3,$4,$5,$6,$7,$8,$9,$2,$3,0*
0 Add four circle primitives for the rounded corners*
1,1,$1+$1,$2,$3*
1,1,$1+$1,$4,$5*
1,1,$1+$1,$6,$7*
1,1,$1+$1,$8,$9*
0 Add four rect primitives between the rounded corners*
20,1,$1+$1,$2,$3,$4,$5,0*
20,1,$1+$1,$4,$5,$6,$7,0*
20,1,$1+$1,$6,$7,$8,$9,0*
20,1,$1+$1,$8,$9,$2,$3,0*%
G04 Aperture macros list end*
%ADD10RoundRect,0.225000X-0.250000X0.225000X-0.250000X-0.225000X0.250000X-0.225000X0.250000X0.225000X0*%
%ADD11R,1.300000X1.300000*%
%ADD12C,1.300000*%
%ADD13O,2.900000X1.900000*%
%ADD14O,1.900000X2.900000*%
%ADD15R,1.700000X1.700000*%
%ADD16C,1.700000*%
%ADD17RoundRect,0.200000X0.275000X-0.200000X0.275000X0.200000X-0.275000X0.200000X-0.275000X-0.200000X0*%
%ADD18RoundRect,0.250000X-0.450000X0.400000X-0.450000X-0.400000X0.450000X-0.400000X0.450000X0.400000X0*%
%ADD19RoundRect,0.200000X-0.275000X0.200000X-0.275000X-0.200000X0.275000X-0.200000X0.275000X0.200000X0*%
%ADD20RoundRect,0.225000X0.250000X-0.225000X0.250000X0.225000X-0.250000X0.225000X-0.250000X-0.225000X0*%
%ADD21R,1.000000X1.500000*%
%ADD22RoundRect,0.225000X-0.225000X-0.250000X0.225000X-0.250000X0.225000X0.250000X-0.225000X0.250000X0*%
%ADD23R,1.200000X3.500000*%
%ADD24RoundRect,0.218750X-0.256250X0.218750X-0.256250X-0.218750X0.256250X-0.218750X0.256250X0.218750X0*%
%ADD25RoundRect,0.200000X0.200000X0.275000X-0.200000X0.275000X-0.200000X-0.275000X0.200000X-0.275000X0*%
%ADD26RoundRect,0.375000X0.375000X-0.625000X0.375000X0.625000X-0.375000X0.625000X-0.375000X-0.625000X0*%
%ADD27RoundRect,0.500000X1.400000X-0.500000X1.400000X0.500000X-1.400000X0.500000X-1.400000X-0.500000X0*%
%ADD28RoundRect,0.075000X0.662500X0.075000X-0.662500X0.075000X-0.662500X-0.075000X0.662500X-0.075000X0*%
%ADD29RoundRect,0.075000X0.075000X0.662500X-0.075000X0.662500X-0.075000X-0.662500X0.075000X-0.662500X0*%
%ADD30RoundRect,0.150000X0.587500X0.150000X-0.587500X0.150000X-0.587500X-0.150000X0.587500X-0.150000X0*%
%ADD31RoundRect,0.218750X0.256250X-0.218750X0.256250X0.218750X-0.256250X0.218750X-0.256250X-0.218750X0*%
%ADD32RoundRect,0.250000X-0.550000X0.550000X-0.550000X-0.550000X0.550000X-0.550000X0.550000X0.550000X0*%
%ADD33C,1.600000*%
%TA.AperFunction,Profile*%
%ADD34C,0.050000*%
%TD*%
G04 APERTURE END LIST*
%TO.C,JP1*%
G36*
X97950000Y-45500000D02*
G01*
X99550000Y-45500000D01*
X99550000Y-47000000D01*
X97950000Y-47000000D01*
X97950000Y-45500000D01*
G37*
%TD*%
D10*
%TO.C,C8*%
X74250000Y-26725000D03*
X74250000Y-28275000D03*
%TD*%
%TO.C,C7*%
X92750000Y-24225000D03*
X92750000Y-25775000D03*
%TD*%
D11*
%TO.C,J4*%
X57385000Y-39000000D03*
D12*
X57385000Y-36500000D03*
X57385000Y-34500000D03*
X57385000Y-32000000D03*
D13*
X56785000Y-42070000D03*
D14*
X52605000Y-35500000D03*
D13*
X56785000Y-28930000D03*
%TD*%
D15*
%TO.C,J2*%
X71670000Y-45750000D03*
D16*
X74210000Y-45750000D03*
X76750000Y-45750000D03*
X79290000Y-45750000D03*
X81830000Y-45750000D03*
%TD*%
D17*
%TO.C,R5*%
X90750000Y-25825000D03*
X90750000Y-24175000D03*
%TD*%
D18*
%TO.C,D3*%
X60500000Y-23550000D03*
X60500000Y-26450000D03*
%TD*%
D19*
%TO.C,R9*%
X105750000Y-24100000D03*
X105750000Y-25750000D03*
%TD*%
D20*
%TO.C,C4*%
X81500000Y-38525000D03*
X81500000Y-36975000D03*
%TD*%
D21*
%TO.C,JP1*%
X97450000Y-46250000D03*
X98750000Y-46250000D03*
X100050000Y-46250000D03*
%TD*%
D20*
%TO.C,C9*%
X74250000Y-25025000D03*
X74250000Y-23475000D03*
%TD*%
D22*
%TO.C,C5*%
X92225000Y-40250000D03*
X93775000Y-40250000D03*
%TD*%
D23*
%TO.C,Y1*%
X97500000Y-37000000D03*
X97500000Y-31500000D03*
%TD*%
D19*
%TO.C,R10*%
X75250000Y-31925000D03*
X75250000Y-33575000D03*
%TD*%
D24*
%TO.C,D1*%
X103500000Y-24137500D03*
X103500000Y-25712500D03*
%TD*%
D25*
%TO.C,R3*%
X93825000Y-42000000D03*
X92175000Y-42000000D03*
%TD*%
D19*
%TO.C,R1*%
X96500000Y-24175000D03*
X96500000Y-25825000D03*
%TD*%
D17*
%TO.C,R2*%
X90500000Y-42075000D03*
X90500000Y-40425000D03*
%TD*%
D26*
%TO.C,U2*%
X64950000Y-27650000D03*
X67250000Y-27650000D03*
D27*
X67250000Y-21350000D03*
D26*
X69550000Y-27650000D03*
%TD*%
D17*
%TO.C,R8*%
X98500000Y-25750000D03*
X98500000Y-24100000D03*
%TD*%
%TO.C,R7*%
X89000000Y-25825000D03*
X89000000Y-24175000D03*
%TD*%
D20*
%TO.C,C1*%
X94750000Y-25775000D03*
X94750000Y-24225000D03*
%TD*%
D10*
%TO.C,C6*%
X84500000Y-24225000D03*
X84500000Y-25775000D03*
%TD*%
D17*
%TO.C,R11*%
X72250000Y-29325000D03*
X72250000Y-27675000D03*
%TD*%
D15*
%TO.C,J1*%
X117500000Y-22750000D03*
D16*
X117500000Y-25290000D03*
X117500000Y-27830000D03*
X117500000Y-30370000D03*
X117500000Y-32910000D03*
X117500000Y-35450000D03*
X117500000Y-37990000D03*
X117500000Y-40530000D03*
X117500000Y-43070000D03*
X117500000Y-45610000D03*
%TD*%
D17*
%TO.C,R13*%
X64250000Y-34825000D03*
X64250000Y-33175000D03*
%TD*%
D28*
%TO.C,U1*%
X93162500Y-36250000D03*
X93162500Y-35750000D03*
X93162500Y-35250000D03*
X93162500Y-34750000D03*
X93162500Y-34250000D03*
X93162500Y-33750000D03*
X93162500Y-33250000D03*
X93162500Y-32750000D03*
X93162500Y-32250000D03*
X93162500Y-31750000D03*
X93162500Y-31250000D03*
X93162500Y-30750000D03*
D29*
X91750000Y-29337500D03*
X91250000Y-29337500D03*
X90750000Y-29337500D03*
X90250000Y-29337500D03*
X89750000Y-29337500D03*
X89250000Y-29337500D03*
X88750000Y-29337500D03*
X88250000Y-29337500D03*
X87750000Y-29337500D03*
X87250000Y-29337500D03*
X86750000Y-29337500D03*
X86250000Y-29337500D03*
D28*
X84837500Y-30750000D03*
X84837500Y-31250000D03*
X84837500Y-31750000D03*
X84837500Y-32250000D03*
X84837500Y-32750000D03*
X84837500Y-33250000D03*
X84837500Y-33750000D03*
X84837500Y-34250000D03*
X84837500Y-34750000D03*
X84837500Y-35250000D03*
X84837500Y-35750000D03*
X84837500Y-36250000D03*
D29*
X86250000Y-37662500D03*
X86750000Y-37662500D03*
X87250000Y-37662500D03*
X87750000Y-37662500D03*
X88250000Y-37662500D03*
X88750000Y-37662500D03*
X89250000Y-37662500D03*
X89750000Y-37662500D03*
X90250000Y-37662500D03*
X90750000Y-37662500D03*
X91250000Y-37662500D03*
X91750000Y-37662500D03*
%TD*%
D17*
%TO.C,R12*%
X72250000Y-33575000D03*
X72250000Y-31925000D03*
%TD*%
%TO.C,R6*%
X81000000Y-32325000D03*
X81000000Y-30675000D03*
%TD*%
D30*
%TO.C,Q1*%
X69250000Y-31900000D03*
X69250000Y-30000000D03*
X67375000Y-30950000D03*
%TD*%
D22*
%TO.C,C3*%
X97475000Y-28250000D03*
X99025000Y-28250000D03*
%TD*%
D31*
%TO.C,D2*%
X100750000Y-25712500D03*
X100750000Y-24137500D03*
%TD*%
D22*
%TO.C,C2*%
X97475000Y-40250000D03*
X99025000Y-40250000D03*
%TD*%
D32*
%TO.C,SW1*%
X110000000Y-30500000D03*
D33*
X110000000Y-38120000D03*
%TD*%
D19*
%TO.C,R4*%
X96000000Y-39925000D03*
X96000000Y-41575000D03*
%TD*%
D34*
X51000000Y-19000000D02*
X120500000Y-19000000D01*
X120500000Y-49000000D01*
X51000000Y-49000000D01*
X51000000Y-19000000D01*
M02*
