%TF.GenerationSoftware,KiCad,Pcbnew,9.0.2*%
%TF.CreationDate,2025-10-23T03:25:40+03:00*%
%TF.ProjectId,stlinkv2,73746c69-6e6b-4763-922e-6b696361645f,rev?*%
%TF.SameCoordinates,Original*%
%TF.FileFunction,Copper,L2,Bot*%
%TF.FilePolarity,Positive*%
%FSLAX46Y46*%
G04 Gerber Fmt 4.6, Leading zero omitted, Abs format (unit mm)*
G04 Created by KiCad (PCBNEW 9.0.2) date 2025-10-23 03:25:40*
%MOMM*%
%LPD*%
G01*
G04 APERTURE LIST*
G04 Aperture macros list*
%AMRoundRect*
0 Rectangle with rounded corners*
0 $1 Rounding radius*
0 $2 $3 $4 $5 $6 $7 $8 $9 X,Y pos of 4 corners*
0 Add a 4 corners polygon primitive as box body*
4,1,4,$2,$3,$4,$5,$6,$7,$8,$9,$2,$3,0*
0 Add four circle primitives for the rounded corners*
1,1,$1+$1,$2,$3*
1,1,$1+$1,$4,$5*
1,1,$1+$1,$6,$7*
1,1,$1+$1,$8,$9*
0 Add four rect primitives between the rounded corners*
20,1,$1+$1,$2,$3,$4,$5,0*
20,1,$1+$1,$4,$5,$6,$7,0*
20,1,$1+$1,$6,$7,$8,$9,0*
20,1,$1+$1,$8,$9,$2,$3,0*%
G04 Aperture macros list end*
%TA.AperFunction,ComponentPad*%
%ADD10R,1.300000X1.300000*%
%TD*%
%TA.AperFunction,ComponentPad*%
%ADD11C,1.300000*%
%TD*%
%TA.AperFunction,ComponentPad*%
%ADD12O,2.900000X1.900000*%
%TD*%
%TA.AperFunction,ComponentPad*%
%ADD13O,1.900000X2.900000*%
%TD*%
%TA.AperFunction,ComponentPad*%
%ADD14R,1.700000X1.700000*%
%TD*%
%TA.AperFunction,ComponentPad*%
%ADD15C,1.700000*%
%TD*%
%TA.AperFunction,ComponentPad*%
%ADD16RoundRect,0.250000X-0.550000X0.550000X-0.550000X-0.550000X0.550000X-0.550000X0.550000X0.550000X0*%
%TD*%
%TA.AperFunction,ComponentPad*%
%ADD17C,1.600000*%
%TD*%
%TA.AperFunction,ViaPad*%
%ADD18C,0.600000*%
%TD*%
%TA.AperFunction,Conductor*%
%ADD19C,0.250000*%
%TD*%
%TA.AperFunction,Conductor*%
%ADD20C,0.500000*%
%TD*%
%TA.AperFunction,Profile*%
%ADD21C,0.050000*%
%TD*%
G04 APERTURE END LIST*
D10*
%TO.P,J4,1,VBUS*%
%TO.N,VBUS*%
X57385000Y-39000000D03*
D11*
%TO.P,J4,2,D-*%
%TO.N,D-*%
X57385000Y-36500000D03*
%TO.P,J4,3,D+*%
%TO.N,D+*%
X57385000Y-34500000D03*
%TO.P,J4,4,GND*%
%TO.N,GND*%
X57385000Y-32000000D03*
D12*
%TO.P,J4,5,Shield*%
X56785000Y-42070000D03*
D13*
X52605000Y-35500000D03*
D12*
X56785000Y-28930000D03*
%TD*%
D14*
%TO.P,J2,1,Pin_1*%
%TO.N,+3.3V*%
X71670000Y-45750000D03*
D15*
%TO.P,J2,2,Pin_2*%
%TO.N,DIO*%
X74210000Y-45750000D03*
%TO.P,J2,3,Pin_3*%
%TO.N,CLK*%
X76750000Y-45750000D03*
%TO.P,J2,4,Pin_4*%
%TO.N,B0*%
X79290000Y-45750000D03*
%TO.P,J2,5,Pin_5*%
%TO.N,GND*%
X81830000Y-45750000D03*
%TD*%
D14*
%TO.P,J1,1,Pin_1*%
%TO.N,+5V*%
X117500000Y-22750000D03*
D15*
%TO.P,J1,2,Pin_2*%
%TO.N,+3.3V*%
X117500000Y-25290000D03*
%TO.P,J1,3,Pin_3*%
%TO.N,T_PWR*%
X117500000Y-27830000D03*
%TO.P,J1,4,Pin_4*%
%TO.N,Net-(J1-Pin_4)*%
X117500000Y-30370000D03*
%TO.P,J1,5,Pin_5*%
%TO.N,T_CLK*%
X117500000Y-32910000D03*
%TO.P,J1,6,Pin_6*%
%TO.N,T_DIO*%
X117500000Y-35450000D03*
%TO.P,J1,7,Pin_7*%
%TO.N,T_SWO*%
X117500000Y-37990000D03*
%TO.P,J1,8,Pin_8*%
%TO.N,T_RST*%
X117500000Y-40530000D03*
%TO.P,J1,9,Pin_9*%
%TO.N,T_TX*%
X117500000Y-43070000D03*
%TO.P,J1,10,Pin_10*%
%TO.N,T_RX*%
X117500000Y-45610000D03*
%TD*%
D16*
%TO.P,SW1,1,A*%
%TO.N,Net-(J1-Pin_4)*%
X110000000Y-30500000D03*
D17*
%TO.P,SW1,2,B*%
%TO.N,GND*%
X110000000Y-38120000D03*
%TD*%
D18*
%TO.N,GND*%
X85750000Y-27500000D03*
X76500000Y-25000000D03*
X89500000Y-35500000D03*
X83250000Y-37250000D03*
X86250000Y-24250000D03*
X86750000Y-32500000D03*
X91250000Y-39000000D03*
X91250000Y-35500000D03*
%TO.N,+3.3V*%
X93775000Y-38500000D03*
X87750000Y-26500000D03*
X97250000Y-27000000D03*
X103000000Y-27000000D03*
X75049209Y-42049209D03*
X93987500Y-27012500D03*
X94500000Y-43250000D03*
%TO.N,+5V*%
X63000000Y-23500000D03*
X75500000Y-22750000D03*
X69500000Y-23500000D03*
%TO.N,LED*%
X101250000Y-28000000D03*
X88500000Y-33145000D03*
%TO.N,VBUS*%
X60500000Y-35750000D03*
X60500000Y-28750000D03*
%TO.N,T_TX*%
X93250000Y-30000000D03*
X102250000Y-30000000D03*
%TO.N,T_SWO*%
X89250000Y-33750000D03*
X105000000Y-33250000D03*
%TO.N,T_CLK*%
X90750000Y-31395000D03*
X105000000Y-31000000D03*
%TO.N,T_RX*%
X92750000Y-29250000D03*
X101250000Y-29250000D03*
%TO.N,T_DIO*%
X89500000Y-32000000D03*
X105000000Y-32000000D03*
%TO.N,T_RST*%
X103250000Y-30750000D03*
X89250000Y-30750000D03*
%TO.N,D-*%
X80000000Y-34145000D03*
%TO.N,T_PWR*%
X101500000Y-46250000D03*
X104000000Y-34250000D03*
%TO.N,Net-(JP1-C)*%
X88000000Y-27500000D03*
X98750000Y-44250000D03*
%TO.N,Net-(Q1-E)*%
X65750000Y-33000000D03*
X70500000Y-30000000D03*
%TO.N,RENUM*%
X87289000Y-36445000D03*
X83250000Y-33500000D03*
%TD*%
D19*
%TO.N,GND*%
X89500000Y-35500000D02*
X91250000Y-35500000D01*
X91250000Y-35500000D02*
X91250000Y-39000000D01*
D20*
%TO.N,+3.3V*%
X87750000Y-26500000D02*
X93475000Y-26500000D01*
D19*
X75049209Y-42370791D02*
X71670000Y-45750000D01*
X97237500Y-27012500D02*
X93987500Y-27012500D01*
D20*
X93475000Y-26500000D02*
X93987500Y-27012500D01*
D19*
X75049209Y-42049209D02*
X75049209Y-42370791D01*
X97250000Y-27000000D02*
X97237500Y-27012500D01*
X93775000Y-42525000D02*
X93775000Y-38500000D01*
X94500000Y-43250000D02*
X93775000Y-42525000D01*
D20*
X93987500Y-27012500D02*
X102987500Y-27012500D01*
D19*
X103000000Y-27000000D02*
X97250000Y-27000000D01*
D20*
X102987500Y-27012500D02*
X103000000Y-27000000D01*
%TO.N,+5V*%
X69500000Y-23500000D02*
X70250000Y-22750000D01*
X70250000Y-22750000D02*
X75500000Y-22750000D01*
X63000000Y-23500000D02*
X69500000Y-23500000D01*
D19*
%TO.N,LED*%
X91000000Y-28000000D02*
X101250000Y-28000000D01*
X88500000Y-30500000D02*
X91000000Y-28000000D01*
X88500000Y-33145000D02*
X88500000Y-30500000D01*
D20*
%TO.N,VBUS*%
X60500000Y-28750000D02*
X60500000Y-35750000D01*
D19*
%TO.N,T_TX*%
X102250000Y-30000000D02*
X93250000Y-30000000D01*
%TO.N,T_SWO*%
X89750000Y-33250000D02*
X105000000Y-33250000D01*
X89250000Y-33750000D02*
X89750000Y-33250000D01*
%TO.N,T_CLK*%
X104605000Y-31395000D02*
X90750000Y-31395000D01*
X105000000Y-31000000D02*
X104605000Y-31395000D01*
%TO.N,T_RX*%
X101250000Y-29250000D02*
X92750000Y-29250000D01*
%TO.N,T_DIO*%
X89500000Y-32000000D02*
X105000000Y-32000000D01*
%TO.N,T_RST*%
X103250000Y-30750000D02*
X89250000Y-30750000D01*
%TO.N,D-*%
X78145000Y-36500000D02*
X57385000Y-36500000D01*
X80000000Y-34645000D02*
X78145000Y-36500000D01*
X80000000Y-34145000D02*
X80000000Y-34645000D01*
%TO.N,T_PWR*%
X104000000Y-43750000D02*
X101500000Y-46250000D01*
X104000000Y-34250000D02*
X104000000Y-43750000D01*
%TO.N,Net-(JP1-C)*%
X87894000Y-27606000D02*
X87894000Y-37501014D01*
X87894000Y-37501014D02*
X94642986Y-44250000D01*
X88000000Y-27500000D02*
X87894000Y-27606000D01*
X94642986Y-44250000D02*
X98750000Y-44250000D01*
%TO.N,Net-(Q1-E)*%
X70500000Y-30000000D02*
X68750000Y-30000000D01*
X68750000Y-30000000D02*
X65750000Y-33000000D01*
%TO.N,RENUM*%
X87196414Y-36445000D02*
X86751414Y-36000000D01*
X86750000Y-36000000D02*
X84250000Y-33500000D01*
X84250000Y-33500000D02*
X83250000Y-33500000D01*
X87289000Y-36445000D02*
X87196414Y-36445000D01*
X86751414Y-36000000D02*
X86750000Y-36000000D01*
%TD*%
%TA.AperFunction,Conductor*%
%TO.N,GND*%
G36*
X119942539Y-19520185D02*
G01*
X119988294Y-19572989D01*
X119999500Y-19624500D01*
X119999500Y-48375500D01*
X119979815Y-48442539D01*
X119927011Y-48488294D01*
X119875500Y-48499500D01*
X51624500Y-48499500D01*
X51557461Y-48479815D01*
X51511706Y-48427011D01*
X51500500Y-48375500D01*
X51500500Y-44852135D01*
X70319500Y-44852135D01*
X70319500Y-46647870D01*
X70319501Y-46647876D01*
X70325908Y-46707483D01*
X70376202Y-46842328D01*
X70376206Y-46842335D01*
X70462452Y-46957544D01*
X70462455Y-46957547D01*
X70577664Y-47043793D01*
X70577671Y-47043797D01*
X70712517Y-47094091D01*
X70712516Y-47094091D01*
X70719444Y-47094835D01*
X70772127Y-47100500D01*
X72567872Y-47100499D01*
X72627483Y-47094091D01*
X72762331Y-47043796D01*
X72877546Y-46957546D01*
X72963796Y-46842331D01*
X73012810Y-46710916D01*
X73054681Y-46654984D01*
X73120145Y-46630566D01*
X73188418Y-46645417D01*
X73216673Y-46666569D01*
X73330213Y-46780109D01*
X73502179Y-46905048D01*
X73502181Y-46905049D01*
X73502184Y-46905051D01*
X73691588Y-47001557D01*
X73893757Y-47067246D01*
X74103713Y-47100500D01*
X74103714Y-47100500D01*
X74316286Y-47100500D01*
X74316287Y-47100500D01*
X74526243Y-47067246D01*
X74728412Y-47001557D01*
X74917816Y-46905051D01*
X75004138Y-46842335D01*
X75089786Y-46780109D01*
X75089788Y-46780106D01*
X75089792Y-46780104D01*
X75240104Y-46629792D01*
X75240106Y-46629788D01*
X75240109Y-46629786D01*
X75365048Y-46457820D01*
X75365047Y-46457820D01*
X75365051Y-46457816D01*
X75369514Y-46449054D01*
X75417488Y-46398259D01*
X75485308Y-46381463D01*
X75551444Y-46403999D01*
X75590486Y-46449056D01*
X75594951Y-46457820D01*
X75719890Y-46629786D01*
X75870213Y-46780109D01*
X76042179Y-46905048D01*
X76042181Y-46905049D01*
X76042184Y-46905051D01*
X76231588Y-47001557D01*
X76433757Y-47067246D01*
X76643713Y-47100500D01*
X76643714Y-47100500D01*
X76856286Y-47100500D01*
X76856287Y-47100500D01*
X77066243Y-47067246D01*
X77268412Y-47001557D01*
X77457816Y-46905051D01*
X77544138Y-46842335D01*
X77629786Y-46780109D01*
X77629788Y-46780106D01*
X77629792Y-46780104D01*
X77780104Y-46629792D01*
X77780106Y-46629788D01*
X77780109Y-46629786D01*
X77905048Y-46457820D01*
X77905047Y-46457820D01*
X77905051Y-46457816D01*
X77909514Y-46449054D01*
X77957488Y-46398259D01*
X78025308Y-46381463D01*
X78091444Y-46403999D01*
X78130486Y-46449056D01*
X78134951Y-46457820D01*
X78259890Y-46629786D01*
X78410213Y-46780109D01*
X78582179Y-46905048D01*
X78582181Y-46905049D01*
X78582184Y-46905051D01*
X78771588Y-47001557D01*
X78973757Y-47067246D01*
X79183713Y-47100500D01*
X79183714Y-47100500D01*
X79396286Y-47100500D01*
X79396287Y-47100500D01*
X79606243Y-47067246D01*
X79808412Y-47001557D01*
X79997816Y-46905051D01*
X80084138Y-46842335D01*
X80169786Y-46780109D01*
X80169788Y-46780106D01*
X80169792Y-46780104D01*
X80320104Y-46629792D01*
X80320106Y-46629788D01*
X80320109Y-46629786D01*
X80405890Y-46511717D01*
X80445051Y-46457816D01*
X80449793Y-46448508D01*
X80497763Y-46397711D01*
X80565583Y-46380911D01*
X80631719Y-46403445D01*
X80670763Y-46448500D01*
X80675373Y-46457547D01*
X80714728Y-46511716D01*
X81347037Y-45879408D01*
X81364075Y-45942993D01*
X81429901Y-46057007D01*
X81522993Y-46150099D01*
X81637007Y-46215925D01*
X81700590Y-46232962D01*
X81068282Y-46865269D01*
X81068282Y-46865270D01*
X81122449Y-46904624D01*
X81311782Y-47001095D01*
X81513870Y-47066757D01*
X81723754Y-47100000D01*
X81936246Y-47100000D01*
X82146127Y-47066757D01*
X82146130Y-47066757D01*
X82348217Y-47001095D01*
X82537554Y-46904622D01*
X82591716Y-46865270D01*
X82591717Y-46865270D01*
X81959408Y-46232962D01*
X82022993Y-46215925D01*
X82137007Y-46150099D01*
X82230099Y-46057007D01*
X82295925Y-45942993D01*
X82312962Y-45879408D01*
X82945270Y-46511717D01*
X82945270Y-46511716D01*
X82984622Y-46457554D01*
X83081095Y-46268217D01*
X83146757Y-46066130D01*
X83146757Y-46066127D01*
X83180000Y-45856246D01*
X83180000Y-45643753D01*
X83146757Y-45433872D01*
X83146757Y-45433869D01*
X83081095Y-45231782D01*
X82984624Y-45042449D01*
X82945270Y-44988282D01*
X82945269Y-44988282D01*
X82312962Y-45620590D01*
X82295925Y-45557007D01*
X82230099Y-45442993D01*
X82137007Y-45349901D01*
X82022993Y-45284075D01*
X81959409Y-45267037D01*
X82591716Y-44634728D01*
X82537550Y-44595375D01*
X82348217Y-44498904D01*
X82146129Y-44433242D01*
X81936246Y-44400000D01*
X81723754Y-44400000D01*
X81513872Y-44433242D01*
X81513869Y-44433242D01*
X81311782Y-44498904D01*
X81122439Y-44595380D01*
X81068282Y-44634727D01*
X81068282Y-44634728D01*
X81700591Y-45267037D01*
X81637007Y-45284075D01*
X81522993Y-45349901D01*
X81429901Y-45442993D01*
X81364075Y-45557007D01*
X81347037Y-45620591D01*
X80714728Y-44988282D01*
X80714727Y-44988282D01*
X80675380Y-45042440D01*
X80675376Y-45042446D01*
X80670760Y-45051505D01*
X80622781Y-45102297D01*
X80554959Y-45119087D01*
X80488826Y-45096543D01*
X80449794Y-45051493D01*
X80445051Y-45042184D01*
X80445049Y-45042181D01*
X80445048Y-45042179D01*
X80320109Y-44870213D01*
X80169786Y-44719890D01*
X79997820Y-44594951D01*
X79808414Y-44498444D01*
X79808413Y-44498443D01*
X79808412Y-44498443D01*
X79606243Y-44432754D01*
X79606241Y-44432753D01*
X79606240Y-44432753D01*
X79444957Y-44407208D01*
X79396287Y-44399500D01*
X79183713Y-44399500D01*
X79135042Y-44407208D01*
X78973760Y-44432753D01*
X78872672Y-44465598D01*
X78817612Y-44483489D01*
X78771585Y-44498444D01*
X78582179Y-44594951D01*
X78410213Y-44719890D01*
X78259890Y-44870213D01*
X78134949Y-45042182D01*
X78130484Y-45050946D01*
X78082509Y-45101742D01*
X78014688Y-45118536D01*
X77948553Y-45095998D01*
X77909516Y-45050946D01*
X77905050Y-45042182D01*
X77780109Y-44870213D01*
X77629786Y-44719890D01*
X77457820Y-44594951D01*
X77268414Y-44498444D01*
X77268413Y-44498443D01*
X77268412Y-44498443D01*
X77066243Y-44432754D01*
X77066241Y-44432753D01*
X77066240Y-44432753D01*
X76904957Y-44407208D01*
X76856287Y-44399500D01*
X76643713Y-44399500D01*
X76595042Y-44407208D01*
X76433760Y-44432753D01*
X76332672Y-44465598D01*
X76277612Y-44483489D01*
X76231585Y-44498444D01*
X76042179Y-44594951D01*
X75870213Y-44719890D01*
X75719890Y-44870213D01*
X75594949Y-45042182D01*
X75590484Y-45050946D01*
X75542509Y-45101742D01*
X75474688Y-45118536D01*
X75408553Y-45095998D01*
X75369516Y-45050946D01*
X75365050Y-45042182D01*
X75240109Y-44870213D01*
X75089786Y-44719890D01*
X74917820Y-44594951D01*
X74728414Y-44498444D01*
X74728413Y-44498443D01*
X74728412Y-44498443D01*
X74526243Y-44432754D01*
X74526241Y-44432753D01*
X74526240Y-44432753D01*
X74364957Y-44407208D01*
X74316287Y-44399500D01*
X74204451Y-44399500D01*
X74137412Y-44379815D01*
X74091657Y-44327011D01*
X74081713Y-44257853D01*
X74110738Y-44194297D01*
X74116770Y-44187819D01*
X74777361Y-43527228D01*
X75447938Y-42856651D01*
X75447942Y-42856649D01*
X75535067Y-42769524D01*
X75603520Y-42667077D01*
X75622436Y-42621407D01*
X75649316Y-42581179D01*
X75670998Y-42559498D01*
X75758603Y-42428388D01*
X75758604Y-42428383D01*
X75758609Y-42428376D01*
X75818944Y-42282710D01*
X75818946Y-42282706D01*
X75849709Y-42128051D01*
X75849709Y-41970367D01*
X75849709Y-41970364D01*
X75849708Y-41970362D01*
X75838686Y-41914951D01*
X75818946Y-41815712D01*
X75804799Y-41781557D01*
X75758606Y-41670036D01*
X75758599Y-41670023D01*
X75670998Y-41538920D01*
X75670995Y-41538916D01*
X75559501Y-41427422D01*
X75559497Y-41427419D01*
X75428394Y-41339818D01*
X75428381Y-41339811D01*
X75282710Y-41279473D01*
X75282698Y-41279470D01*
X75128054Y-41248709D01*
X75128051Y-41248709D01*
X74970367Y-41248709D01*
X74970364Y-41248709D01*
X74815719Y-41279470D01*
X74815707Y-41279473D01*
X74670036Y-41339811D01*
X74670023Y-41339818D01*
X74538920Y-41427419D01*
X74538916Y-41427422D01*
X74427422Y-41538916D01*
X74427419Y-41538920D01*
X74339818Y-41670023D01*
X74339811Y-41670036D01*
X74279473Y-41815707D01*
X74279470Y-41815719D01*
X74248709Y-41970362D01*
X74248709Y-41970367D01*
X74248709Y-42128051D01*
X74248710Y-42128055D01*
X74262100Y-42195374D01*
X74255871Y-42264965D01*
X74228163Y-42307245D01*
X72172227Y-44363181D01*
X72110904Y-44396666D01*
X72084546Y-44399500D01*
X70772129Y-44399500D01*
X70772123Y-44399501D01*
X70712516Y-44405908D01*
X70577671Y-44456202D01*
X70577664Y-44456206D01*
X70462455Y-44542452D01*
X70462452Y-44542455D01*
X70376206Y-44657664D01*
X70376202Y-44657671D01*
X70325908Y-44792517D01*
X70319501Y-44852116D01*
X70319500Y-44852135D01*
X51500500Y-44852135D01*
X51500500Y-41820000D01*
X54856522Y-41820000D01*
X55684999Y-41820000D01*
X55659979Y-41880402D01*
X55635000Y-42005981D01*
X55635000Y-42134019D01*
X55659979Y-42259598D01*
X55684999Y-42320000D01*
X54856522Y-42320000D01*
X54870704Y-42409544D01*
X54941230Y-42626604D01*
X55044849Y-42829966D01*
X55179004Y-43014614D01*
X55340385Y-43175995D01*
X55525033Y-43310150D01*
X55728395Y-43413769D01*
X55945455Y-43484295D01*
X56170884Y-43520000D01*
X56535000Y-43520000D01*
X56535000Y-42720000D01*
X57035000Y-42720000D01*
X57035000Y-43520000D01*
X57399116Y-43520000D01*
X57624544Y-43484295D01*
X57841604Y-43413769D01*
X58044966Y-43310150D01*
X58229614Y-43175995D01*
X58390995Y-43014614D01*
X58525150Y-42829966D01*
X58628769Y-42626604D01*
X58699295Y-42409544D01*
X58713478Y-42320000D01*
X57885001Y-42320000D01*
X57910021Y-42259598D01*
X57935000Y-42134019D01*
X57935000Y-42005981D01*
X57910021Y-41880402D01*
X57885001Y-41820000D01*
X58713478Y-41820000D01*
X58699295Y-41730455D01*
X58628769Y-41513395D01*
X58525150Y-41310033D01*
X58390995Y-41125385D01*
X58229614Y-40964004D01*
X58044966Y-40829849D01*
X57841604Y-40726230D01*
X57624544Y-40655704D01*
X57399116Y-40620000D01*
X57035000Y-40620000D01*
X57035000Y-41420000D01*
X56535000Y-41420000D01*
X56535000Y-40620000D01*
X56170884Y-40620000D01*
X55945455Y-40655704D01*
X55728395Y-40726230D01*
X55525033Y-40829849D01*
X55340385Y-40964004D01*
X55179004Y-41125385D01*
X55044849Y-41310033D01*
X54941230Y-41513395D01*
X54870704Y-41730455D01*
X54856522Y-41820000D01*
X51500500Y-41820000D01*
X51500500Y-37233196D01*
X51520185Y-37166157D01*
X51572989Y-37120402D01*
X51642147Y-37110458D01*
X51697386Y-37132878D01*
X51845033Y-37240150D01*
X52048395Y-37343769D01*
X52265455Y-37414295D01*
X52355000Y-37428478D01*
X52355000Y-36600001D01*
X52415402Y-36625021D01*
X52540981Y-36650000D01*
X52669019Y-36650000D01*
X52794598Y-36625021D01*
X52855000Y-36600001D01*
X52855000Y-37428477D01*
X52944544Y-37414295D01*
X53161604Y-37343769D01*
X53364966Y-37240150D01*
X53549614Y-37105995D01*
X53710995Y-36944614D01*
X53845150Y-36759966D01*
X53948769Y-36556604D01*
X54019295Y-36339544D01*
X54055000Y-36114116D01*
X54055000Y-35750000D01*
X53255000Y-35750000D01*
X53255000Y-35250000D01*
X54055000Y-35250000D01*
X54055000Y-34885883D01*
X54019295Y-34660455D01*
X53948768Y-34443393D01*
X53931472Y-34409448D01*
X56234500Y-34409448D01*
X56234500Y-34590551D01*
X56262829Y-34769410D01*
X56318787Y-34941636D01*
X56318788Y-34941639D01*
X56401006Y-35102997D01*
X56507441Y-35249494D01*
X56507445Y-35249499D01*
X56635500Y-35377554D01*
X56665956Y-35399682D01*
X56708621Y-35455013D01*
X56714600Y-35524626D01*
X56681994Y-35586421D01*
X56665956Y-35600318D01*
X56635500Y-35622445D01*
X56507445Y-35750500D01*
X56507441Y-35750505D01*
X56401006Y-35897002D01*
X56318788Y-36058360D01*
X56318787Y-36058363D01*
X56262829Y-36230589D01*
X56234500Y-36409448D01*
X56234500Y-36590551D01*
X56262829Y-36769410D01*
X56318787Y-36941636D01*
X56318788Y-36941639D01*
X56401006Y-37102997D01*
X56507441Y-37249494D01*
X56507445Y-37249499D01*
X56635500Y-37377554D01*
X56635505Y-37377558D01*
X56719584Y-37438644D01*
X56782006Y-37483996D01*
X56887484Y-37537740D01*
X56943360Y-37566211D01*
X56943366Y-37566213D01*
X57070650Y-37607569D01*
X57128326Y-37647006D01*
X57155525Y-37711364D01*
X57143611Y-37780210D01*
X57096367Y-37831687D01*
X57032333Y-37849500D01*
X56687130Y-37849500D01*
X56687123Y-37849501D01*
X56627516Y-37855908D01*
X56492671Y-37906202D01*
X56492664Y-37906206D01*
X56377455Y-37992452D01*
X56377452Y-37992455D01*
X56291206Y-38107664D01*
X56291202Y-38107671D01*
X56240908Y-38242517D01*
X56234501Y-38302116D01*
X56234501Y-38302123D01*
X56234500Y-38302135D01*
X56234500Y-39697870D01*
X56234501Y-39697876D01*
X56240908Y-39757483D01*
X56291202Y-39892328D01*
X56291206Y-39892335D01*
X56377452Y-40007544D01*
X56377455Y-40007547D01*
X56492664Y-40093793D01*
X56492671Y-40093797D01*
X56627517Y-40144091D01*
X56627516Y-40144091D01*
X56634444Y-40144835D01*
X56687127Y-40150500D01*
X58082872Y-40150499D01*
X58142483Y-40144091D01*
X58277331Y-40093796D01*
X58392546Y-40007546D01*
X58478796Y-39892331D01*
X58529091Y-39757483D01*
X58535500Y-39697873D01*
X58535499Y-38302128D01*
X58529091Y-38242517D01*
X58503036Y-38172661D01*
X58478797Y-38107671D01*
X58478793Y-38107664D01*
X58392547Y-37992455D01*
X58392544Y-37992452D01*
X58277335Y-37906206D01*
X58277328Y-37906202D01*
X58142482Y-37855908D01*
X58142483Y-37855908D01*
X58082883Y-37849501D01*
X58082881Y-37849500D01*
X58082873Y-37849500D01*
X58082865Y-37849500D01*
X57737668Y-37849500D01*
X57670629Y-37829815D01*
X57624874Y-37777011D01*
X57614930Y-37707853D01*
X57643955Y-37644297D01*
X57699351Y-37607569D01*
X57826633Y-37566213D01*
X57826639Y-37566211D01*
X57833685Y-37562621D01*
X57987994Y-37483996D01*
X58134501Y-37377553D01*
X58262553Y-37249501D01*
X58315509Y-37176613D01*
X58370838Y-37133949D01*
X58415826Y-37125500D01*
X78206607Y-37125500D01*
X78267029Y-37113481D01*
X78327452Y-37101463D01*
X78360792Y-37087652D01*
X78441286Y-37054312D01*
X78499884Y-37015157D01*
X78543733Y-36985858D01*
X78630858Y-36898733D01*
X78630859Y-36898730D01*
X78637925Y-36891665D01*
X78637928Y-36891661D01*
X80398729Y-35130860D01*
X80398733Y-35130858D01*
X80485858Y-35043733D01*
X80520084Y-34992509D01*
X80554312Y-34941286D01*
X80601463Y-34827451D01*
X80625500Y-34706607D01*
X80625500Y-34687350D01*
X80645185Y-34620311D01*
X80646398Y-34618459D01*
X80646809Y-34617843D01*
X80709394Y-34524179D01*
X80769737Y-34378497D01*
X80800500Y-34223842D01*
X80800500Y-34066158D01*
X80800500Y-34066155D01*
X80800499Y-34066153D01*
X80784058Y-33983498D01*
X80769737Y-33911503D01*
X80751354Y-33867121D01*
X80709397Y-33765827D01*
X80709390Y-33765814D01*
X80621789Y-33634711D01*
X80621786Y-33634707D01*
X80510292Y-33523213D01*
X80510284Y-33523207D01*
X80502792Y-33518201D01*
X80502742Y-33518168D01*
X80379185Y-33435609D01*
X80379172Y-33435602D01*
X80344289Y-33421153D01*
X82449500Y-33421153D01*
X82449500Y-33578846D01*
X82480261Y-33733489D01*
X82480264Y-33733501D01*
X82540602Y-33879172D01*
X82540609Y-33879185D01*
X82628210Y-34010288D01*
X82628213Y-34010292D01*
X82739707Y-34121786D01*
X82739711Y-34121789D01*
X82870814Y-34209390D01*
X82870827Y-34209397D01*
X83016498Y-34269735D01*
X83016503Y-34269737D01*
X83171153Y-34300499D01*
X83171156Y-34300500D01*
X83171158Y-34300500D01*
X83328844Y-34300500D01*
X83328845Y-34300499D01*
X83483497Y-34269737D01*
X83629179Y-34209394D01*
X83723459Y-34146398D01*
X83741505Y-34140747D01*
X83757415Y-34130523D01*
X83788374Y-34126071D01*
X83790136Y-34125520D01*
X83792350Y-34125500D01*
X83939548Y-34125500D01*
X84006587Y-34145185D01*
X84027229Y-34161819D01*
X86261016Y-36395606D01*
X86261030Y-36395621D01*
X86264141Y-36398732D01*
X86264142Y-36398733D01*
X86351267Y-36485858D01*
X86351271Y-36485860D01*
X86354448Y-36488468D01*
X86363465Y-36496641D01*
X86486194Y-36619370D01*
X86515606Y-36673235D01*
X86517493Y-36672663D01*
X86519263Y-36678499D01*
X86579602Y-36824172D01*
X86579609Y-36824185D01*
X86667210Y-36955288D01*
X86667213Y-36955292D01*
X86778707Y-37066786D01*
X86778711Y-37066789D01*
X86909814Y-37154390D01*
X86909827Y-37154397D01*
X87055498Y-37214735D01*
X87055503Y-37214737D01*
X87114943Y-37226560D01*
X87168691Y-37237252D01*
X87230602Y-37269637D01*
X87265176Y-37330352D01*
X87268500Y-37358869D01*
X87268500Y-37562625D01*
X87292535Y-37683458D01*
X87292540Y-37683475D01*
X87339685Y-37797294D01*
X87339687Y-37797297D01*
X87339688Y-37797300D01*
X87373915Y-37848523D01*
X87408142Y-37899747D01*
X87495267Y-37986872D01*
X87495269Y-37986873D01*
X87505232Y-37996836D01*
X94244249Y-44735855D01*
X94244253Y-44735858D01*
X94346696Y-44804309D01*
X94346697Y-44804309D01*
X94346701Y-44804312D01*
X94400184Y-44826465D01*
X94460534Y-44851463D01*
X94480583Y-44855451D01*
X94489004Y-44857126D01*
X94581378Y-44875501D01*
X94581380Y-44875501D01*
X94710707Y-44875501D01*
X94710727Y-44875500D01*
X98207650Y-44875500D01*
X98274689Y-44895185D01*
X98276541Y-44896398D01*
X98370821Y-44959394D01*
X98370823Y-44959395D01*
X98370827Y-44959397D01*
X98440563Y-44988282D01*
X98516503Y-45019737D01*
X98671153Y-45050499D01*
X98671156Y-45050500D01*
X98671158Y-45050500D01*
X98828844Y-45050500D01*
X98828845Y-45050499D01*
X98983497Y-45019737D01*
X99129179Y-44959394D01*
X99260289Y-44871789D01*
X99371789Y-44760289D01*
X99459394Y-44629179D01*
X99519737Y-44483497D01*
X99550500Y-44328842D01*
X99550500Y-44171158D01*
X99550500Y-44171155D01*
X99550499Y-44171153D01*
X99531968Y-44077994D01*
X99519737Y-44016503D01*
X99484925Y-43932459D01*
X99459397Y-43870827D01*
X99459390Y-43870814D01*
X99371789Y-43739711D01*
X99371786Y-43739707D01*
X99260292Y-43628213D01*
X99260288Y-43628210D01*
X99129185Y-43540609D01*
X99129172Y-43540602D01*
X98983501Y-43480264D01*
X98983489Y-43480261D01*
X98828845Y-43449500D01*
X98828842Y-43449500D01*
X98671158Y-43449500D01*
X98671155Y-43449500D01*
X98516510Y-43480261D01*
X98516498Y-43480264D01*
X98370827Y-43540602D01*
X98370815Y-43540609D01*
X98276541Y-43603602D01*
X98209864Y-43624480D01*
X98207650Y-43624500D01*
X95392784Y-43624500D01*
X95325745Y-43604815D01*
X95279990Y-43552011D01*
X95270046Y-43482853D01*
X95271167Y-43476308D01*
X95300500Y-43328844D01*
X95300500Y-43171155D01*
X95300499Y-43171153D01*
X95269738Y-43016510D01*
X95269737Y-43016503D01*
X95247871Y-42963713D01*
X95209397Y-42870827D01*
X95209390Y-42870814D01*
X95121789Y-42739711D01*
X95121786Y-42739707D01*
X95010292Y-42628213D01*
X95010288Y-42628210D01*
X94879185Y-42540609D01*
X94879172Y-42540602D01*
X94733501Y-42480264D01*
X94733489Y-42480261D01*
X94622285Y-42458141D01*
X94605528Y-42449376D01*
X94587049Y-42445356D01*
X94562010Y-42426611D01*
X94560374Y-42425756D01*
X94558795Y-42424205D01*
X94436819Y-42302229D01*
X94403334Y-42240906D01*
X94400500Y-42214548D01*
X94400500Y-39042350D01*
X94420185Y-38975311D01*
X94421398Y-38973459D01*
X94421809Y-38972843D01*
X94484394Y-38879179D01*
X94544737Y-38733497D01*
X94575500Y-38578842D01*
X94575500Y-38421158D01*
X94575500Y-38421155D01*
X94575499Y-38421153D01*
X94552641Y-38306239D01*
X94544737Y-38266503D01*
X94505867Y-38172661D01*
X94484397Y-38120827D01*
X94484390Y-38120814D01*
X94396789Y-37989711D01*
X94396786Y-37989707D01*
X94285292Y-37878213D01*
X94285288Y-37878210D01*
X94154185Y-37790609D01*
X94154172Y-37790602D01*
X94008501Y-37730264D01*
X94008489Y-37730261D01*
X93853845Y-37699500D01*
X93853842Y-37699500D01*
X93696158Y-37699500D01*
X93696155Y-37699500D01*
X93541510Y-37730261D01*
X93541498Y-37730264D01*
X93395827Y-37790602D01*
X93395814Y-37790609D01*
X93264711Y-37878210D01*
X93264707Y-37878213D01*
X93153213Y-37989707D01*
X93153210Y-37989711D01*
X93065609Y-38120814D01*
X93065602Y-38120827D01*
X93005264Y-38266498D01*
X93005261Y-38266510D01*
X92974500Y-38421153D01*
X92974500Y-38578846D01*
X93005261Y-38733489D01*
X93005264Y-38733501D01*
X93065602Y-38879172D01*
X93065609Y-38879184D01*
X93128602Y-38973459D01*
X93149480Y-39040136D01*
X93149500Y-39042350D01*
X93149500Y-41572561D01*
X93129815Y-41639600D01*
X93077011Y-41685355D01*
X93007853Y-41695299D01*
X92944297Y-41666274D01*
X92937819Y-41660242D01*
X88555819Y-37278242D01*
X88522334Y-37216919D01*
X88519500Y-37190561D01*
X88519500Y-34450941D01*
X88539185Y-34383902D01*
X88591989Y-34338147D01*
X88661147Y-34328203D01*
X88724703Y-34357228D01*
X88731181Y-34363260D01*
X88739707Y-34371786D01*
X88739711Y-34371789D01*
X88870814Y-34459390D01*
X88870827Y-34459397D01*
X89016498Y-34519735D01*
X89016503Y-34519737D01*
X89171153Y-34550499D01*
X89171156Y-34550500D01*
X89171158Y-34550500D01*
X89328844Y-34550500D01*
X89328845Y-34550499D01*
X89483497Y-34519737D01*
X89629179Y-34459394D01*
X89760289Y-34371789D01*
X89871789Y-34260289D01*
X89959394Y-34129179D01*
X90019737Y-33983497D01*
X90021365Y-33975308D01*
X90053750Y-33913399D01*
X90114465Y-33878824D01*
X90142983Y-33875500D01*
X103107216Y-33875500D01*
X103174255Y-33895185D01*
X103220010Y-33947989D01*
X103229954Y-34017147D01*
X103228833Y-34023692D01*
X103199500Y-34171155D01*
X103199500Y-34328846D01*
X103230261Y-34483489D01*
X103230264Y-34483501D01*
X103290602Y-34629172D01*
X103290609Y-34629184D01*
X103353602Y-34723459D01*
X103374480Y-34790136D01*
X103374500Y-34792350D01*
X103374500Y-43439547D01*
X103354815Y-43506586D01*
X103338181Y-43527228D01*
X101441203Y-45424205D01*
X101379880Y-45457690D01*
X101377714Y-45458141D01*
X101266508Y-45480261D01*
X101266498Y-45480264D01*
X101120827Y-45540602D01*
X101120814Y-45540609D01*
X100989711Y-45628210D01*
X100989707Y-45628213D01*
X100878213Y-45739707D01*
X100878210Y-45739711D01*
X100790609Y-45870814D01*
X100790602Y-45870827D01*
X100730264Y-46016498D01*
X100730261Y-46016510D01*
X100699500Y-46171153D01*
X100699500Y-46328846D01*
X100730261Y-46483489D01*
X100730264Y-46483501D01*
X100790602Y-46629172D01*
X100790609Y-46629185D01*
X100878210Y-46760288D01*
X100878213Y-46760292D01*
X100989707Y-46871786D01*
X100989711Y-46871789D01*
X101120814Y-46959390D01*
X101120827Y-46959397D01*
X101222607Y-47001555D01*
X101266503Y-47019737D01*
X101387440Y-47043793D01*
X101421153Y-47050499D01*
X101421156Y-47050500D01*
X101421158Y-47050500D01*
X101578844Y-47050500D01*
X101578845Y-47050499D01*
X101733497Y-47019737D01*
X101879179Y-46959394D01*
X102010289Y-46871789D01*
X102121789Y-46760289D01*
X102209394Y-46629179D01*
X102269737Y-46483497D01*
X102291858Y-46372282D01*
X102324240Y-46310375D01*
X102325735Y-46308853D01*
X104398729Y-44235860D01*
X104398733Y-44235858D01*
X104485858Y-44148733D01*
X104538132Y-44070500D01*
X104554312Y-44046285D01*
X104594280Y-43949792D01*
X104601463Y-43932452D01*
X104613722Y-43870821D01*
X104620781Y-43835335D01*
X104620781Y-43835331D01*
X104625500Y-43811607D01*
X104625500Y-43688393D01*
X104625500Y-38017682D01*
X108700000Y-38017682D01*
X108700000Y-38222317D01*
X108732009Y-38424417D01*
X108795244Y-38619031D01*
X108888141Y-38801350D01*
X108888147Y-38801359D01*
X108920523Y-38845921D01*
X108920524Y-38845922D01*
X109600000Y-38166446D01*
X109600000Y-38172661D01*
X109627259Y-38274394D01*
X109679920Y-38365606D01*
X109754394Y-38440080D01*
X109845606Y-38492741D01*
X109947339Y-38520000D01*
X109953553Y-38520000D01*
X109274076Y-39199474D01*
X109318650Y-39231859D01*
X109500968Y-39324755D01*
X109695582Y-39387990D01*
X109897683Y-39420000D01*
X110102317Y-39420000D01*
X110304417Y-39387990D01*
X110499031Y-39324755D01*
X110681349Y-39231859D01*
X110725921Y-39199474D01*
X110046447Y-38520000D01*
X110052661Y-38520000D01*
X110154394Y-38492741D01*
X110245606Y-38440080D01*
X110320080Y-38365606D01*
X110372741Y-38274394D01*
X110400000Y-38172661D01*
X110400000Y-38166447D01*
X111079474Y-38845921D01*
X111111859Y-38801349D01*
X111204755Y-38619031D01*
X111267990Y-38424417D01*
X111300000Y-38222317D01*
X111300000Y-38017682D01*
X111267990Y-37815582D01*
X111204755Y-37620968D01*
X111111859Y-37438650D01*
X111079474Y-37394077D01*
X111079474Y-37394076D01*
X110400000Y-38073551D01*
X110400000Y-38067339D01*
X110372741Y-37965606D01*
X110320080Y-37874394D01*
X110245606Y-37799920D01*
X110154394Y-37747259D01*
X110052661Y-37720000D01*
X110046446Y-37720000D01*
X110725922Y-37040524D01*
X110725921Y-37040523D01*
X110681359Y-37008147D01*
X110681350Y-37008141D01*
X110499031Y-36915244D01*
X110304417Y-36852009D01*
X110102317Y-36820000D01*
X109897683Y-36820000D01*
X109695582Y-36852009D01*
X109500968Y-36915244D01*
X109318644Y-37008143D01*
X109274077Y-37040523D01*
X109274077Y-37040524D01*
X109953554Y-37720000D01*
X109947339Y-37720000D01*
X109845606Y-37747259D01*
X109754394Y-37799920D01*
X109679920Y-37874394D01*
X109627259Y-37965606D01*
X109600000Y-38067339D01*
X109600000Y-38073553D01*
X108920524Y-37394077D01*
X108920523Y-37394077D01*
X108888143Y-37438644D01*
X108795244Y-37620968D01*
X108732009Y-37815582D01*
X108700000Y-38017682D01*
X104625500Y-38017682D01*
X104625500Y-34792350D01*
X104645185Y-34725311D01*
X104646398Y-34723459D01*
X104688496Y-34660455D01*
X104709394Y-34629179D01*
X104769737Y-34483497D01*
X104800500Y-34328842D01*
X104800500Y-34174500D01*
X104820185Y-34107461D01*
X104872989Y-34061706D01*
X104924500Y-34050500D01*
X105078844Y-34050500D01*
X105078845Y-34050499D01*
X105233497Y-34019737D01*
X105379179Y-33959394D01*
X105510289Y-33871789D01*
X105621789Y-33760289D01*
X105709394Y-33629179D01*
X105712183Y-33622447D01*
X105730244Y-33578842D01*
X105769737Y-33483497D01*
X105800500Y-33328842D01*
X105800500Y-33171158D01*
X105800500Y-33171155D01*
X105800499Y-33171153D01*
X105782137Y-33078842D01*
X105769737Y-33016503D01*
X105768759Y-33014142D01*
X105709397Y-32870827D01*
X105709390Y-32870814D01*
X105621789Y-32739711D01*
X105621786Y-32739707D01*
X105594760Y-32712681D01*
X105561275Y-32651358D01*
X105566259Y-32581666D01*
X105594760Y-32537319D01*
X105621786Y-32510292D01*
X105621789Y-32510289D01*
X105709394Y-32379179D01*
X105769737Y-32233497D01*
X105800500Y-32078842D01*
X105800500Y-31921158D01*
X105800500Y-31921155D01*
X105800499Y-31921153D01*
X105792291Y-31879890D01*
X105769737Y-31766503D01*
X105743231Y-31702512D01*
X105709396Y-31620825D01*
X105709394Y-31620822D01*
X105709394Y-31620821D01*
X105674694Y-31568889D01*
X105653816Y-31502215D01*
X105672300Y-31434835D01*
X105674676Y-31431136D01*
X105709394Y-31379179D01*
X105769737Y-31233497D01*
X105800500Y-31078842D01*
X105800500Y-30921158D01*
X105800500Y-30921155D01*
X105800499Y-30921153D01*
X105769738Y-30766510D01*
X105769737Y-30766503D01*
X105753611Y-30727571D01*
X105709397Y-30620827D01*
X105709390Y-30620814D01*
X105621789Y-30489711D01*
X105621786Y-30489707D01*
X105510292Y-30378213D01*
X105510288Y-30378210D01*
X105379185Y-30290609D01*
X105379172Y-30290602D01*
X105233501Y-30230264D01*
X105233489Y-30230261D01*
X105078845Y-30199500D01*
X105078842Y-30199500D01*
X104921158Y-30199500D01*
X104921155Y-30199500D01*
X104766510Y-30230261D01*
X104766498Y-30230264D01*
X104620827Y-30290602D01*
X104620814Y-30290609D01*
X104489711Y-30378210D01*
X104489707Y-30378213D01*
X104378213Y-30489707D01*
X104378210Y-30489711D01*
X104290609Y-30620814D01*
X104290601Y-30620829D01*
X104278061Y-30651104D01*
X104234220Y-30705507D01*
X104167925Y-30727571D01*
X104100226Y-30710291D01*
X104052616Y-30659153D01*
X104041884Y-30627841D01*
X104019738Y-30516510D01*
X104019737Y-30516503D01*
X104017163Y-30510288D01*
X103959397Y-30370827D01*
X103959390Y-30370814D01*
X103871789Y-30239711D01*
X103871786Y-30239707D01*
X103760292Y-30128213D01*
X103760288Y-30128210D01*
X103629185Y-30040609D01*
X103629172Y-30040602D01*
X103558658Y-30011395D01*
X103483501Y-29980264D01*
X103483489Y-29980261D01*
X103328845Y-29949500D01*
X103328842Y-29949500D01*
X103171158Y-29949500D01*
X103171150Y-29949500D01*
X103170174Y-29949596D01*
X103169668Y-29949500D01*
X103165066Y-29949500D01*
X103165066Y-29948626D01*
X103101530Y-29936566D01*
X103062945Y-29899983D01*
X108699500Y-29899983D01*
X108699500Y-31100001D01*
X108699501Y-31100018D01*
X108710000Y-31202796D01*
X108710001Y-31202799D01*
X108765185Y-31369331D01*
X108765186Y-31369334D01*
X108857288Y-31518656D01*
X108981344Y-31642712D01*
X109130666Y-31734814D01*
X109297203Y-31789999D01*
X109399991Y-31800500D01*
X110600008Y-31800499D01*
X110702797Y-31789999D01*
X110869334Y-31734814D01*
X111018656Y-31642712D01*
X111142712Y-31518656D01*
X111234814Y-31369334D01*
X111289999Y-31202797D01*
X111300500Y-31100009D01*
X111300499Y-29899992D01*
X111299324Y-29888494D01*
X111289999Y-29797203D01*
X111289998Y-29797200D01*
X111277767Y-29760289D01*
X111234814Y-29630666D01*
X111142712Y-29481344D01*
X111018656Y-29357288D01*
X110920179Y-29296547D01*
X110869336Y-29265187D01*
X110869331Y-29265185D01*
X110867862Y-29264698D01*
X110702797Y-29210001D01*
X110702795Y-29210000D01*
X110600010Y-29199500D01*
X109399998Y-29199500D01*
X109399981Y-29199501D01*
X109297203Y-29210000D01*
X109297200Y-29210001D01*
X109130668Y-29265185D01*
X109130663Y-29265187D01*
X108981342Y-29357289D01*
X108857289Y-29481342D01*
X108765187Y-29630663D01*
X108765185Y-29630668D01*
X108754742Y-29662184D01*
X108710001Y-29797203D01*
X108710001Y-29797204D01*
X108710000Y-29797204D01*
X108699500Y-29899983D01*
X103062945Y-29899983D01*
X103050827Y-29888494D01*
X103036422Y-29850382D01*
X103019738Y-29766510D01*
X103019737Y-29766503D01*
X102963471Y-29630663D01*
X102959397Y-29620827D01*
X102959390Y-29620814D01*
X102871789Y-29489711D01*
X102871786Y-29489707D01*
X102760292Y-29378213D01*
X102760288Y-29378210D01*
X102629185Y-29290609D01*
X102629172Y-29290602D01*
X102483501Y-29230264D01*
X102483489Y-29230261D01*
X102328845Y-29199500D01*
X102328842Y-29199500D01*
X102171158Y-29199500D01*
X102171150Y-29199500D01*
X102170174Y-29199596D01*
X102169668Y-29199500D01*
X102165066Y-29199500D01*
X102165066Y-29198626D01*
X102101530Y-29186566D01*
X102050827Y-29138494D01*
X102036422Y-29100382D01*
X102023912Y-29037491D01*
X102019737Y-29016503D01*
X102006062Y-28983489D01*
X101959397Y-28870827D01*
X101959390Y-28870814D01*
X101871789Y-28739711D01*
X101871786Y-28739707D01*
X101844760Y-28712681D01*
X101811275Y-28651358D01*
X101816259Y-28581666D01*
X101844760Y-28537319D01*
X101871786Y-28510292D01*
X101871789Y-28510289D01*
X101959394Y-28379179D01*
X101962854Y-28370827D01*
X102017163Y-28239711D01*
X102019737Y-28233497D01*
X102050500Y-28078842D01*
X102050500Y-27921158D01*
X102050500Y-27921155D01*
X102048518Y-27911192D01*
X102054745Y-27841601D01*
X102097607Y-27786423D01*
X102163497Y-27763178D01*
X102170135Y-27763000D01*
X102725899Y-27763000D01*
X102761891Y-27768338D01*
X102766495Y-27769733D01*
X102766503Y-27769737D01*
X102850389Y-27786423D01*
X102921153Y-27800499D01*
X102921156Y-27800500D01*
X102921158Y-27800500D01*
X103078844Y-27800500D01*
X103078845Y-27800499D01*
X103233497Y-27769737D01*
X103379179Y-27709394D01*
X103510289Y-27621789D01*
X103621789Y-27510289D01*
X103709394Y-27379179D01*
X103711319Y-27374533D01*
X103732668Y-27322989D01*
X103769737Y-27233497D01*
X103800500Y-27078842D01*
X103800500Y-26921158D01*
X103800500Y-26921155D01*
X103800499Y-26921153D01*
X103769738Y-26766510D01*
X103769737Y-26766503D01*
X103756062Y-26733489D01*
X103709397Y-26620827D01*
X103709390Y-26620814D01*
X103621789Y-26489711D01*
X103621786Y-26489707D01*
X103510292Y-26378213D01*
X103510288Y-26378210D01*
X103379185Y-26290609D01*
X103379172Y-26290602D01*
X103233501Y-26230264D01*
X103233489Y-26230261D01*
X103078845Y-26199500D01*
X103078842Y-26199500D01*
X102921158Y-26199500D01*
X102921155Y-26199500D01*
X102766510Y-26230261D01*
X102766502Y-26230263D01*
X102712671Y-26252561D01*
X102665218Y-26262000D01*
X97584782Y-26262000D01*
X97537329Y-26252561D01*
X97483497Y-26230263D01*
X97483489Y-26230261D01*
X97328845Y-26199500D01*
X97328842Y-26199500D01*
X97171158Y-26199500D01*
X97171155Y-26199500D01*
X97016510Y-26230261D01*
X97016502Y-26230263D01*
X96962671Y-26252561D01*
X96915218Y-26262000D01*
X94349729Y-26262000D01*
X94282690Y-26242315D01*
X94262052Y-26225685D01*
X93953416Y-25917048D01*
X93953415Y-25917047D01*
X93953414Y-25917046D01*
X93879729Y-25867812D01*
X93879729Y-25867813D01*
X93830491Y-25834913D01*
X93693917Y-25778343D01*
X93693907Y-25778340D01*
X93548920Y-25749500D01*
X93548918Y-25749500D01*
X88054604Y-25749500D01*
X88007155Y-25740062D01*
X87983497Y-25730263D01*
X87983493Y-25730262D01*
X87983488Y-25730260D01*
X87828845Y-25699500D01*
X87828842Y-25699500D01*
X87671158Y-25699500D01*
X87671155Y-25699500D01*
X87516510Y-25730261D01*
X87516498Y-25730264D01*
X87370827Y-25790602D01*
X87370814Y-25790609D01*
X87239711Y-25878210D01*
X87239707Y-25878213D01*
X87128213Y-25989707D01*
X87128210Y-25989711D01*
X87040609Y-26120814D01*
X87040602Y-26120827D01*
X86980264Y-26266498D01*
X86980261Y-26266510D01*
X86949500Y-26421153D01*
X86949500Y-26578846D01*
X86980261Y-26733489D01*
X86980264Y-26733501D01*
X87040602Y-26879172D01*
X87040609Y-26879185D01*
X87128210Y-27010288D01*
X87128213Y-27010292D01*
X87216829Y-27098908D01*
X87250314Y-27160231D01*
X87245330Y-27229923D01*
X87243709Y-27234041D01*
X87230263Y-27266501D01*
X87230260Y-27266511D01*
X87199500Y-27421153D01*
X87199500Y-27578846D01*
X87230261Y-27733489D01*
X87230263Y-27733497D01*
X87259061Y-27803021D01*
X87268500Y-27850474D01*
X87268500Y-35334548D01*
X87248815Y-35401587D01*
X87196011Y-35447342D01*
X87126853Y-35457286D01*
X87063297Y-35428261D01*
X87056819Y-35422229D01*
X84743150Y-33108560D01*
X84735860Y-33101270D01*
X84735858Y-33101267D01*
X84648733Y-33014142D01*
X84597509Y-32979915D01*
X84546286Y-32945688D01*
X84546283Y-32945686D01*
X84546280Y-32945685D01*
X84470690Y-32914375D01*
X84470683Y-32914373D01*
X84463754Y-32911503D01*
X84432452Y-32898537D01*
X84372029Y-32886518D01*
X84367450Y-32885607D01*
X84367442Y-32885605D01*
X84311610Y-32874500D01*
X84311607Y-32874500D01*
X84311606Y-32874500D01*
X83792350Y-32874500D01*
X83725311Y-32854815D01*
X83723459Y-32853602D01*
X83629184Y-32790609D01*
X83629172Y-32790602D01*
X83483501Y-32730264D01*
X83483489Y-32730261D01*
X83328845Y-32699500D01*
X83328842Y-32699500D01*
X83171158Y-32699500D01*
X83171155Y-32699500D01*
X83016510Y-32730261D01*
X83016498Y-32730264D01*
X82870827Y-32790602D01*
X82870814Y-32790609D01*
X82739711Y-32878210D01*
X82739707Y-32878213D01*
X82628213Y-32989707D01*
X82628210Y-32989711D01*
X82540609Y-33120814D01*
X82540602Y-33120827D01*
X82480264Y-33266498D01*
X82480261Y-33266510D01*
X82449500Y-33421153D01*
X80344289Y-33421153D01*
X80233501Y-33375264D01*
X80233489Y-33375261D01*
X80078845Y-33344500D01*
X80078842Y-33344500D01*
X79921158Y-33344500D01*
X79921155Y-33344500D01*
X79766510Y-33375261D01*
X79766498Y-33375264D01*
X79620827Y-33435602D01*
X79620814Y-33435609D01*
X79489711Y-33523210D01*
X79489707Y-33523213D01*
X79378213Y-33634707D01*
X79378210Y-33634711D01*
X79290609Y-33765814D01*
X79290602Y-33765827D01*
X79230264Y-33911498D01*
X79230261Y-33911510D01*
X79199500Y-34066153D01*
X79199500Y-34223846D01*
X79230261Y-34378489D01*
X79230263Y-34378497D01*
X79242973Y-34409181D01*
X79250442Y-34478650D01*
X79219167Y-34541130D01*
X79216093Y-34544315D01*
X77922229Y-35838181D01*
X77860906Y-35871666D01*
X77834548Y-35874500D01*
X61424500Y-35874500D01*
X61357461Y-35854815D01*
X61311706Y-35802011D01*
X61300500Y-35750500D01*
X61300500Y-35671155D01*
X61300499Y-35671153D01*
X61269739Y-35516511D01*
X61269738Y-35516508D01*
X61269737Y-35516503D01*
X61259937Y-35492844D01*
X61250500Y-35445396D01*
X61250500Y-32921153D01*
X64949500Y-32921153D01*
X64949500Y-33078846D01*
X64980261Y-33233489D01*
X64980264Y-33233501D01*
X65040602Y-33379172D01*
X65040609Y-33379185D01*
X65128210Y-33510288D01*
X65128213Y-33510292D01*
X65239707Y-33621786D01*
X65239711Y-33621789D01*
X65370814Y-33709390D01*
X65370827Y-33709397D01*
X65516498Y-33769735D01*
X65516503Y-33769737D01*
X65617326Y-33789792D01*
X65671153Y-33800499D01*
X65671156Y-33800500D01*
X65671158Y-33800500D01*
X65828844Y-33800500D01*
X65828845Y-33800499D01*
X65983497Y-33769737D01*
X66129179Y-33709394D01*
X66260289Y-33621789D01*
X66371789Y-33510289D01*
X66459394Y-33379179D01*
X66519737Y-33233497D01*
X66541858Y-33122282D01*
X66574240Y-33060375D01*
X66575734Y-33058854D01*
X68972772Y-30661819D01*
X69034095Y-30628334D01*
X69060453Y-30625500D01*
X69957650Y-30625500D01*
X70024689Y-30645185D01*
X70026541Y-30646398D01*
X70120821Y-30709394D01*
X70120823Y-30709395D01*
X70120827Y-30709397D01*
X70164704Y-30727571D01*
X70266503Y-30769737D01*
X70421153Y-30800499D01*
X70421156Y-30800500D01*
X70421158Y-30800500D01*
X70578844Y-30800500D01*
X70578845Y-30800499D01*
X70733497Y-30769737D01*
X70846166Y-30723067D01*
X70879172Y-30709397D01*
X70879172Y-30709396D01*
X70879179Y-30709394D01*
X71010289Y-30621789D01*
X71121789Y-30510289D01*
X71209394Y-30379179D01*
X71212854Y-30370827D01*
X71223843Y-30344295D01*
X71269737Y-30233497D01*
X71300500Y-30078842D01*
X71300500Y-29921158D01*
X71300500Y-29921155D01*
X71300499Y-29921153D01*
X71290679Y-29871786D01*
X71269737Y-29766503D01*
X71213471Y-29630663D01*
X71209397Y-29620827D01*
X71209390Y-29620814D01*
X71121789Y-29489711D01*
X71121786Y-29489707D01*
X71010292Y-29378213D01*
X71010288Y-29378210D01*
X70879185Y-29290609D01*
X70879172Y-29290602D01*
X70733501Y-29230264D01*
X70733489Y-29230261D01*
X70578845Y-29199500D01*
X70578842Y-29199500D01*
X70421158Y-29199500D01*
X70421155Y-29199500D01*
X70266510Y-29230261D01*
X70266498Y-29230264D01*
X70120827Y-29290602D01*
X70120815Y-29290609D01*
X70026541Y-29353602D01*
X69959864Y-29374480D01*
X69957650Y-29374500D01*
X68817741Y-29374500D01*
X68817721Y-29374499D01*
X68811607Y-29374499D01*
X68688394Y-29374499D01*
X68587597Y-29394548D01*
X68587592Y-29394548D01*
X68567553Y-29398535D01*
X68567550Y-29398536D01*
X68544823Y-29407950D01*
X68453717Y-29445686D01*
X68453708Y-29445691D01*
X68351267Y-29514141D01*
X68351263Y-29514144D01*
X65691203Y-32174205D01*
X65629880Y-32207690D01*
X65627714Y-32208141D01*
X65516508Y-32230261D01*
X65516498Y-32230264D01*
X65370827Y-32290602D01*
X65370814Y-32290609D01*
X65239711Y-32378210D01*
X65239707Y-32378213D01*
X65128213Y-32489707D01*
X65128210Y-32489711D01*
X65040609Y-32620814D01*
X65040602Y-32620827D01*
X64980264Y-32766498D01*
X64980261Y-32766510D01*
X64949500Y-32921153D01*
X61250500Y-32921153D01*
X61250500Y-29054604D01*
X61259939Y-29007151D01*
X61269737Y-28983497D01*
X61300500Y-28828842D01*
X61300500Y-28671158D01*
X61300500Y-28671155D01*
X61300499Y-28671153D01*
X61298642Y-28661819D01*
X61269737Y-28516503D01*
X61231882Y-28425112D01*
X61209397Y-28370827D01*
X61209390Y-28370814D01*
X61121789Y-28239711D01*
X61121786Y-28239707D01*
X61010292Y-28128213D01*
X61010288Y-28128210D01*
X60879185Y-28040609D01*
X60879172Y-28040602D01*
X60733501Y-27980264D01*
X60733489Y-27980261D01*
X60578845Y-27949500D01*
X60578842Y-27949500D01*
X60421158Y-27949500D01*
X60421155Y-27949500D01*
X60266510Y-27980261D01*
X60266498Y-27980264D01*
X60120827Y-28040602D01*
X60120814Y-28040609D01*
X59989711Y-28128210D01*
X59989707Y-28128213D01*
X59878213Y-28239707D01*
X59878210Y-28239711D01*
X59790609Y-28370814D01*
X59790602Y-28370827D01*
X59730264Y-28516498D01*
X59730261Y-28516510D01*
X59699500Y-28671153D01*
X59699500Y-28828846D01*
X59730261Y-28983489D01*
X59730263Y-28983497D01*
X59740061Y-29007151D01*
X59749500Y-29054604D01*
X59749500Y-35445396D01*
X59740062Y-35492844D01*
X59731241Y-35514142D01*
X59730262Y-35516506D01*
X59730260Y-35516511D01*
X59699500Y-35671153D01*
X59699500Y-35750500D01*
X59679815Y-35817539D01*
X59627011Y-35863294D01*
X59575500Y-35874500D01*
X58415826Y-35874500D01*
X58348787Y-35854815D01*
X58315509Y-35823387D01*
X58262553Y-35750499D01*
X58134501Y-35622447D01*
X58104043Y-35600318D01*
X58061378Y-35544989D01*
X58055399Y-35475376D01*
X58088004Y-35413580D01*
X58104044Y-35399681D01*
X58134501Y-35377553D01*
X58262553Y-35249501D01*
X58368996Y-35102994D01*
X58451211Y-34941639D01*
X58507171Y-34769409D01*
X58524428Y-34660455D01*
X58535500Y-34590551D01*
X58535500Y-34409448D01*
X58518243Y-34300499D01*
X58507171Y-34230591D01*
X58477979Y-34140747D01*
X58451212Y-34058363D01*
X58451211Y-34058360D01*
X58413066Y-33983498D01*
X58368996Y-33897006D01*
X58347283Y-33867121D01*
X58262558Y-33750505D01*
X58262554Y-33750500D01*
X58134499Y-33622445D01*
X58134494Y-33622441D01*
X57987997Y-33516006D01*
X57987996Y-33516005D01*
X57987994Y-33516004D01*
X57924180Y-33483489D01*
X57826639Y-33433788D01*
X57826636Y-33433787D01*
X57654411Y-33377829D01*
X57618992Y-33372219D01*
X57555858Y-33342289D01*
X57518928Y-33282976D01*
X57519926Y-33213114D01*
X57558537Y-33154882D01*
X57618997Y-33127272D01*
X57654296Y-33121681D01*
X57826444Y-33065748D01*
X57826452Y-33065745D01*
X57987730Y-32983568D01*
X58003532Y-32972085D01*
X58003533Y-32972085D01*
X57473585Y-32442137D01*
X57558694Y-32419333D01*
X57661306Y-32360090D01*
X57745090Y-32276306D01*
X57804333Y-32173694D01*
X57827137Y-32088585D01*
X58357085Y-32618533D01*
X58357085Y-32618532D01*
X58368568Y-32602730D01*
X58450745Y-32441452D01*
X58450748Y-32441444D01*
X58506682Y-32269293D01*
X58535000Y-32090506D01*
X58535000Y-31909493D01*
X58506682Y-31730706D01*
X58450748Y-31558555D01*
X58450747Y-31558552D01*
X58368571Y-31397275D01*
X58368566Y-31397267D01*
X58357085Y-31381466D01*
X57827137Y-31911414D01*
X57804333Y-31826306D01*
X57745090Y-31723694D01*
X57661306Y-31639910D01*
X57558694Y-31580667D01*
X57473584Y-31557861D01*
X58003533Y-31027913D01*
X57987730Y-31016431D01*
X57826447Y-30934252D01*
X57826444Y-30934251D01*
X57654293Y-30878317D01*
X57475506Y-30850000D01*
X57294494Y-30850000D01*
X57115706Y-30878317D01*
X56943555Y-30934251D01*
X56943547Y-30934254D01*
X56782269Y-31016432D01*
X56766466Y-31027912D01*
X56766466Y-31027913D01*
X57296415Y-31557861D01*
X57211306Y-31580667D01*
X57108694Y-31639910D01*
X57024910Y-31723694D01*
X56965667Y-31826306D01*
X56942861Y-31911414D01*
X56412913Y-31381466D01*
X56412912Y-31381466D01*
X56401432Y-31397269D01*
X56319254Y-31558547D01*
X56319251Y-31558555D01*
X56263317Y-31730706D01*
X56235000Y-31909493D01*
X56235000Y-32090506D01*
X56263317Y-32269293D01*
X56319251Y-32441444D01*
X56319252Y-32441447D01*
X56401431Y-32602730D01*
X56412913Y-32618532D01*
X56412913Y-32618533D01*
X56942861Y-32088584D01*
X56965667Y-32173694D01*
X57024910Y-32276306D01*
X57108694Y-32360090D01*
X57211306Y-32419333D01*
X57296414Y-32442137D01*
X56766466Y-32972085D01*
X56766466Y-32972086D01*
X56782267Y-32983566D01*
X56782275Y-32983571D01*
X56943552Y-33065747D01*
X56943555Y-33065748D01*
X57115702Y-33121681D01*
X57151003Y-33127272D01*
X57214138Y-33157201D01*
X57251070Y-33216512D01*
X57250074Y-33286374D01*
X57211465Y-33344608D01*
X57151007Y-33372219D01*
X57115588Y-33377829D01*
X56943363Y-33433787D01*
X56943360Y-33433788D01*
X56782002Y-33516006D01*
X56635505Y-33622441D01*
X56635500Y-33622445D01*
X56507445Y-33750500D01*
X56507441Y-33750505D01*
X56401006Y-33897002D01*
X56318788Y-34058360D01*
X56318787Y-34058363D01*
X56262829Y-34230589D01*
X56234500Y-34409448D01*
X53931472Y-34409448D01*
X53845150Y-34240033D01*
X53710995Y-34055385D01*
X53549614Y-33894004D01*
X53364966Y-33759849D01*
X53161602Y-33656229D01*
X52944541Y-33585703D01*
X52855000Y-33571521D01*
X52855000Y-34399998D01*
X52794598Y-34374979D01*
X52669019Y-34350000D01*
X52540981Y-34350000D01*
X52415402Y-34374979D01*
X52355000Y-34399998D01*
X52355000Y-33571521D01*
X52354999Y-33571521D01*
X52265458Y-33585703D01*
X52048397Y-33656229D01*
X51845030Y-33759851D01*
X51697385Y-33867121D01*
X51631579Y-33890601D01*
X51563525Y-33874775D01*
X51514830Y-33824669D01*
X51500500Y-33766803D01*
X51500500Y-28680000D01*
X54856522Y-28680000D01*
X55684999Y-28680000D01*
X55659979Y-28740402D01*
X55635000Y-28865981D01*
X55635000Y-28994019D01*
X55659979Y-29119598D01*
X55684999Y-29180000D01*
X54856522Y-29180000D01*
X54870704Y-29269544D01*
X54941230Y-29486604D01*
X55044849Y-29689966D01*
X55179004Y-29874614D01*
X55340385Y-30035995D01*
X55525033Y-30170150D01*
X55728395Y-30273769D01*
X55945455Y-30344295D01*
X56170884Y-30380000D01*
X56535000Y-30380000D01*
X56535000Y-29580000D01*
X57035000Y-29580000D01*
X57035000Y-30380000D01*
X57399116Y-30380000D01*
X57624544Y-30344295D01*
X57841604Y-30273769D01*
X58044966Y-30170150D01*
X58229614Y-30035995D01*
X58390995Y-29874614D01*
X58525150Y-29689966D01*
X58628769Y-29486604D01*
X58699295Y-29269544D01*
X58713478Y-29180000D01*
X57885001Y-29180000D01*
X57910021Y-29119598D01*
X57935000Y-28994019D01*
X57935000Y-28865981D01*
X57910021Y-28740402D01*
X57885001Y-28680000D01*
X58713478Y-28680000D01*
X58699295Y-28590455D01*
X58628769Y-28373395D01*
X58525150Y-28170033D01*
X58390995Y-27985385D01*
X58229614Y-27824004D01*
X58044966Y-27689849D01*
X57841604Y-27586230D01*
X57624544Y-27515704D01*
X57399116Y-27480000D01*
X57035000Y-27480000D01*
X57035000Y-28280000D01*
X56535000Y-28280000D01*
X56535000Y-27480000D01*
X56170884Y-27480000D01*
X55945455Y-27515704D01*
X55728395Y-27586230D01*
X55525033Y-27689849D01*
X55340385Y-27824004D01*
X55179004Y-27985385D01*
X55044849Y-28170033D01*
X54941230Y-28373395D01*
X54870704Y-28590455D01*
X54856522Y-28680000D01*
X51500500Y-28680000D01*
X51500500Y-23421153D01*
X62199500Y-23421153D01*
X62199500Y-23578846D01*
X62230261Y-23733489D01*
X62230264Y-23733501D01*
X62290602Y-23879172D01*
X62290609Y-23879185D01*
X62378210Y-24010288D01*
X62378213Y-24010292D01*
X62489707Y-24121786D01*
X62489711Y-24121789D01*
X62620814Y-24209390D01*
X62620827Y-24209397D01*
X62766498Y-24269735D01*
X62766503Y-24269737D01*
X62901919Y-24296673D01*
X62921153Y-24300499D01*
X62921156Y-24300500D01*
X62921158Y-24300500D01*
X63078844Y-24300500D01*
X63078845Y-24300499D01*
X63155152Y-24285320D01*
X63233488Y-24269739D01*
X63233489Y-24269738D01*
X63233497Y-24269737D01*
X63257155Y-24259937D01*
X63304604Y-24250500D01*
X69195396Y-24250500D01*
X69242844Y-24259937D01*
X69266503Y-24269737D01*
X69266508Y-24269738D01*
X69266511Y-24269739D01*
X69421153Y-24300499D01*
X69421156Y-24300500D01*
X69421158Y-24300500D01*
X69578844Y-24300500D01*
X69578845Y-24300499D01*
X69733497Y-24269737D01*
X69879179Y-24209394D01*
X70010289Y-24121789D01*
X70121789Y-24010289D01*
X70209394Y-23879179D01*
X70219192Y-23855521D01*
X70246067Y-23815298D01*
X70524549Y-23536816D01*
X70585871Y-23503334D01*
X70612229Y-23500500D01*
X75195396Y-23500500D01*
X75242844Y-23509937D01*
X75266503Y-23519737D01*
X75266508Y-23519738D01*
X75266511Y-23519739D01*
X75421153Y-23550499D01*
X75421156Y-23550500D01*
X75421158Y-23550500D01*
X75578844Y-23550500D01*
X75578845Y-23550499D01*
X75733497Y-23519737D01*
X75879179Y-23459394D01*
X76010289Y-23371789D01*
X76121789Y-23260289D01*
X76209394Y-23129179D01*
X76212854Y-23120827D01*
X76267163Y-22989711D01*
X76269737Y-22983497D01*
X76300500Y-22828842D01*
X76300500Y-22671158D01*
X76300500Y-22671155D01*
X76300499Y-22671153D01*
X76269738Y-22516510D01*
X76269737Y-22516503D01*
X76269735Y-22516498D01*
X76209397Y-22370827D01*
X76209390Y-22370814D01*
X76121789Y-22239711D01*
X76121786Y-22239707D01*
X76010292Y-22128213D01*
X76010288Y-22128210D01*
X75879185Y-22040609D01*
X75879172Y-22040602D01*
X75733501Y-21980264D01*
X75733489Y-21980261D01*
X75684031Y-21970423D01*
X75684030Y-21970423D01*
X75578844Y-21949500D01*
X75578842Y-21949500D01*
X75421158Y-21949500D01*
X75421155Y-21949500D01*
X75266511Y-21980260D01*
X75266506Y-21980262D01*
X75266504Y-21980262D01*
X75266503Y-21980263D01*
X75242844Y-21990062D01*
X75195396Y-21999500D01*
X70176080Y-21999500D01*
X70031092Y-22028340D01*
X70031082Y-22028343D01*
X69894511Y-22084912D01*
X69894498Y-22084919D01*
X69771584Y-22167048D01*
X69771580Y-22167051D01*
X69225451Y-22713181D01*
X69164128Y-22746666D01*
X69137770Y-22749500D01*
X63304604Y-22749500D01*
X63257155Y-22740062D01*
X63233497Y-22730263D01*
X63233493Y-22730262D01*
X63233488Y-22730260D01*
X63078845Y-22699500D01*
X63078842Y-22699500D01*
X62921158Y-22699500D01*
X62921155Y-22699500D01*
X62766510Y-22730261D01*
X62766498Y-22730264D01*
X62620827Y-22790602D01*
X62620814Y-22790609D01*
X62489711Y-22878210D01*
X62489707Y-22878213D01*
X62378213Y-22989707D01*
X62378210Y-22989711D01*
X62290609Y-23120814D01*
X62290602Y-23120827D01*
X62230264Y-23266498D01*
X62230261Y-23266510D01*
X62199500Y-23421153D01*
X51500500Y-23421153D01*
X51500500Y-21852135D01*
X116149500Y-21852135D01*
X116149500Y-23647870D01*
X116149501Y-23647876D01*
X116155908Y-23707483D01*
X116206202Y-23842328D01*
X116206206Y-23842335D01*
X116292452Y-23957544D01*
X116292455Y-23957547D01*
X116407664Y-24043793D01*
X116407671Y-24043797D01*
X116539082Y-24092810D01*
X116595016Y-24134681D01*
X116619433Y-24200145D01*
X116604582Y-24268418D01*
X116583431Y-24296673D01*
X116469889Y-24410215D01*
X116344951Y-24582179D01*
X116248444Y-24771585D01*
X116182753Y-24973760D01*
X116149500Y-25183713D01*
X116149500Y-25396287D01*
X116182754Y-25606243D01*
X116242658Y-25790609D01*
X116248444Y-25808414D01*
X116344951Y-25997820D01*
X116469890Y-26169786D01*
X116620213Y-26320109D01*
X116792182Y-26445050D01*
X116800946Y-26449516D01*
X116851742Y-26497491D01*
X116868536Y-26565312D01*
X116845998Y-26631447D01*
X116800946Y-26670484D01*
X116792182Y-26674949D01*
X116620213Y-26799890D01*
X116469890Y-26950213D01*
X116344951Y-27122179D01*
X116248444Y-27311585D01*
X116182753Y-27513760D01*
X116149500Y-27723713D01*
X116149500Y-27936286D01*
X116172078Y-28078842D01*
X116182754Y-28146243D01*
X116226214Y-28280000D01*
X116248444Y-28348414D01*
X116344951Y-28537820D01*
X116469890Y-28709786D01*
X116620213Y-28860109D01*
X116792182Y-28985050D01*
X116800946Y-28989516D01*
X116851742Y-29037491D01*
X116868536Y-29105312D01*
X116845998Y-29171447D01*
X116800946Y-29210484D01*
X116792182Y-29214949D01*
X116620213Y-29339890D01*
X116469890Y-29490213D01*
X116344951Y-29662179D01*
X116248444Y-29851585D01*
X116182753Y-30053760D01*
X116149500Y-30263713D01*
X116149500Y-30476286D01*
X116180364Y-30671158D01*
X116182754Y-30686243D01*
X116219878Y-30800499D01*
X116248444Y-30888414D01*
X116344951Y-31077820D01*
X116469890Y-31249786D01*
X116620213Y-31400109D01*
X116792182Y-31525050D01*
X116800946Y-31529516D01*
X116851742Y-31577491D01*
X116868536Y-31645312D01*
X116845998Y-31711447D01*
X116800946Y-31750484D01*
X116792182Y-31754949D01*
X116620213Y-31879890D01*
X116469890Y-32030213D01*
X116344951Y-32202179D01*
X116248444Y-32391585D01*
X116182753Y-32593760D01*
X116155392Y-32766510D01*
X116149500Y-32803713D01*
X116149500Y-33016287D01*
X116149534Y-33016503D01*
X116181212Y-33216512D01*
X116182754Y-33226243D01*
X116246084Y-33421153D01*
X116248444Y-33428414D01*
X116344951Y-33617820D01*
X116469890Y-33789786D01*
X116620213Y-33940109D01*
X116792182Y-34065050D01*
X116800946Y-34069516D01*
X116851742Y-34117491D01*
X116868536Y-34185312D01*
X116845998Y-34251447D01*
X116800946Y-34290484D01*
X116792182Y-34294949D01*
X116620213Y-34419890D01*
X116469890Y-34570213D01*
X116344951Y-34742179D01*
X116248444Y-34931585D01*
X116182753Y-35133760D01*
X116149500Y-35343713D01*
X116149500Y-35556286D01*
X116180260Y-35750500D01*
X116182754Y-35766243D01*
X116225240Y-35897002D01*
X116248444Y-35968414D01*
X116344951Y-36157820D01*
X116469890Y-36329786D01*
X116620213Y-36480109D01*
X116792182Y-36605050D01*
X116800946Y-36609516D01*
X116851742Y-36657491D01*
X116868536Y-36725312D01*
X116845998Y-36791447D01*
X116800946Y-36830484D01*
X116792182Y-36834949D01*
X116620213Y-36959890D01*
X116469890Y-37110213D01*
X116344951Y-37282179D01*
X116248444Y-37471585D01*
X116182753Y-37673760D01*
X116149500Y-37883713D01*
X116149500Y-38096286D01*
X116177709Y-38274394D01*
X116182754Y-38306243D01*
X116243351Y-38492741D01*
X116248444Y-38508414D01*
X116344951Y-38697820D01*
X116469890Y-38869786D01*
X116620213Y-39020109D01*
X116792182Y-39145050D01*
X116800946Y-39149516D01*
X116851742Y-39197491D01*
X116868536Y-39265312D01*
X116845998Y-39331447D01*
X116800946Y-39370484D01*
X116792182Y-39374949D01*
X116620213Y-39499890D01*
X116469890Y-39650213D01*
X116344951Y-39822179D01*
X116248444Y-40011585D01*
X116182753Y-40213760D01*
X116149500Y-40423713D01*
X116149500Y-40636286D01*
X116182753Y-40846239D01*
X116248444Y-41048414D01*
X116344951Y-41237820D01*
X116469890Y-41409786D01*
X116620213Y-41560109D01*
X116792182Y-41685050D01*
X116800946Y-41689516D01*
X116851742Y-41737491D01*
X116868536Y-41805312D01*
X116845998Y-41871447D01*
X116800946Y-41910484D01*
X116792182Y-41914949D01*
X116620213Y-42039890D01*
X116469890Y-42190213D01*
X116344951Y-42362179D01*
X116248444Y-42551585D01*
X116182753Y-42753760D01*
X116149500Y-42963713D01*
X116149500Y-43176286D01*
X116173662Y-43328842D01*
X116182754Y-43386243D01*
X116226214Y-43520000D01*
X116248444Y-43588414D01*
X116344951Y-43777820D01*
X116469890Y-43949786D01*
X116620213Y-44100109D01*
X116792182Y-44225050D01*
X116800946Y-44229516D01*
X116851742Y-44277491D01*
X116868536Y-44345312D01*
X116845998Y-44411447D01*
X116800946Y-44450484D01*
X116792182Y-44454949D01*
X116620213Y-44579890D01*
X116469890Y-44730213D01*
X116344951Y-44902179D01*
X116248444Y-45091585D01*
X116182753Y-45293760D01*
X116162093Y-45424205D01*
X116149500Y-45503713D01*
X116149500Y-45716287D01*
X116154840Y-45750000D01*
X116165265Y-45815826D01*
X116182754Y-45926243D01*
X116228206Y-46066130D01*
X116248444Y-46128414D01*
X116344951Y-46317820D01*
X116469890Y-46489786D01*
X116620213Y-46640109D01*
X116792179Y-46765048D01*
X116792181Y-46765049D01*
X116792184Y-46765051D01*
X116981588Y-46861557D01*
X117183757Y-46927246D01*
X117393713Y-46960500D01*
X117393714Y-46960500D01*
X117606286Y-46960500D01*
X117606287Y-46960500D01*
X117816243Y-46927246D01*
X118018412Y-46861557D01*
X118207816Y-46765051D01*
X118343366Y-46666569D01*
X118379786Y-46640109D01*
X118379788Y-46640106D01*
X118379792Y-46640104D01*
X118530104Y-46489792D01*
X118530106Y-46489788D01*
X118530109Y-46489786D01*
X118655048Y-46317820D01*
X118655047Y-46317820D01*
X118655051Y-46317816D01*
X118751557Y-46128412D01*
X118817246Y-45926243D01*
X118850500Y-45716287D01*
X118850500Y-45503713D01*
X118817246Y-45293757D01*
X118751557Y-45091588D01*
X118655051Y-44902184D01*
X118655049Y-44902181D01*
X118655048Y-44902179D01*
X118530109Y-44730213D01*
X118379786Y-44579890D01*
X118207820Y-44454951D01*
X118207115Y-44454591D01*
X118199054Y-44450485D01*
X118148259Y-44402512D01*
X118131463Y-44334692D01*
X118153999Y-44268556D01*
X118199054Y-44229515D01*
X118207816Y-44225051D01*
X118282001Y-44171153D01*
X118379786Y-44100109D01*
X118379788Y-44100106D01*
X118379792Y-44100104D01*
X118530104Y-43949792D01*
X118530106Y-43949788D01*
X118530109Y-43949786D01*
X118655048Y-43777820D01*
X118655047Y-43777820D01*
X118655051Y-43777816D01*
X118751557Y-43588412D01*
X118817246Y-43386243D01*
X118850500Y-43176287D01*
X118850500Y-42963713D01*
X118817246Y-42753757D01*
X118751557Y-42551588D01*
X118655051Y-42362184D01*
X118655049Y-42362181D01*
X118655048Y-42362179D01*
X118530109Y-42190213D01*
X118379786Y-42039890D01*
X118207820Y-41914951D01*
X118207115Y-41914591D01*
X118199054Y-41910485D01*
X118148259Y-41862512D01*
X118131463Y-41794692D01*
X118153999Y-41728556D01*
X118199054Y-41689515D01*
X118207816Y-41685051D01*
X118248285Y-41655649D01*
X118379786Y-41560109D01*
X118379788Y-41560106D01*
X118379792Y-41560104D01*
X118530104Y-41409792D01*
X118530106Y-41409788D01*
X118530109Y-41409786D01*
X118655048Y-41237820D01*
X118655047Y-41237820D01*
X118655051Y-41237816D01*
X118751557Y-41048412D01*
X118817246Y-40846243D01*
X118850500Y-40636287D01*
X118850500Y-40423713D01*
X118817246Y-40213757D01*
X118751557Y-40011588D01*
X118655051Y-39822184D01*
X118655049Y-39822181D01*
X118655048Y-39822179D01*
X118530109Y-39650213D01*
X118379786Y-39499890D01*
X118207820Y-39374951D01*
X118207115Y-39374591D01*
X118199054Y-39370485D01*
X118148259Y-39322512D01*
X118131463Y-39254692D01*
X118153999Y-39188556D01*
X118199054Y-39149515D01*
X118207816Y-39145051D01*
X118349173Y-39042350D01*
X118379786Y-39020109D01*
X118379788Y-39020106D01*
X118379792Y-39020104D01*
X118530104Y-38869792D01*
X118530106Y-38869788D01*
X118530109Y-38869786D01*
X118655048Y-38697820D01*
X118655047Y-38697820D01*
X118655051Y-38697816D01*
X118751557Y-38508412D01*
X118817246Y-38306243D01*
X118850500Y-38096287D01*
X118850500Y-37883713D01*
X118817246Y-37673757D01*
X118751557Y-37471588D01*
X118655051Y-37282184D01*
X118655049Y-37282181D01*
X118655048Y-37282179D01*
X118530109Y-37110213D01*
X118379786Y-36959890D01*
X118207820Y-36834951D01*
X118207115Y-36834591D01*
X118199054Y-36830485D01*
X118148259Y-36782512D01*
X118131463Y-36714692D01*
X118153999Y-36648556D01*
X118199054Y-36609515D01*
X118207816Y-36605051D01*
X118357031Y-36496641D01*
X118379786Y-36480109D01*
X118379788Y-36480106D01*
X118379792Y-36480104D01*
X118530104Y-36329792D01*
X118530106Y-36329788D01*
X118530109Y-36329786D01*
X118655048Y-36157820D01*
X118655047Y-36157820D01*
X118655051Y-36157816D01*
X118751557Y-35968412D01*
X118817246Y-35766243D01*
X118850500Y-35556287D01*
X118850500Y-35343713D01*
X118817246Y-35133757D01*
X118751557Y-34931588D01*
X118655051Y-34742184D01*
X118655049Y-34742181D01*
X118655048Y-34742179D01*
X118530109Y-34570213D01*
X118379786Y-34419890D01*
X118207820Y-34294951D01*
X118207115Y-34294591D01*
X118199054Y-34290485D01*
X118148259Y-34242512D01*
X118131463Y-34174692D01*
X118153999Y-34108556D01*
X118199054Y-34069515D01*
X118207816Y-34065051D01*
X118269081Y-34020540D01*
X118379786Y-33940109D01*
X118379788Y-33940106D01*
X118379792Y-33940104D01*
X118530104Y-33789792D01*
X118530106Y-33789788D01*
X118530109Y-33789786D01*
X118655048Y-33617820D01*
X118655047Y-33617820D01*
X118655051Y-33617816D01*
X118751557Y-33428412D01*
X118817246Y-33226243D01*
X118850500Y-33016287D01*
X118850500Y-32803713D01*
X118817246Y-32593757D01*
X118751557Y-32391588D01*
X118655051Y-32202184D01*
X118655049Y-32202181D01*
X118655048Y-32202179D01*
X118530109Y-32030213D01*
X118379786Y-31879890D01*
X118207820Y-31754951D01*
X118207115Y-31754591D01*
X118199054Y-31750485D01*
X118148259Y-31702512D01*
X118131463Y-31634692D01*
X118153999Y-31568556D01*
X118199054Y-31529515D01*
X118207816Y-31525051D01*
X118331989Y-31434835D01*
X118379786Y-31400109D01*
X118379788Y-31400106D01*
X118379792Y-31400104D01*
X118530104Y-31249792D01*
X118530106Y-31249788D01*
X118530109Y-31249786D01*
X118654304Y-31078844D01*
X118655051Y-31077816D01*
X118751557Y-30888412D01*
X118817246Y-30686243D01*
X118850500Y-30476287D01*
X118850500Y-30263713D01*
X118817246Y-30053757D01*
X118751557Y-29851588D01*
X118655051Y-29662184D01*
X118655049Y-29662181D01*
X118655048Y-29662179D01*
X118530109Y-29490213D01*
X118379786Y-29339890D01*
X118207820Y-29214951D01*
X118207115Y-29214591D01*
X118199054Y-29210485D01*
X118148259Y-29162512D01*
X118131463Y-29094692D01*
X118153999Y-29028556D01*
X118199054Y-28989515D01*
X118207816Y-28985051D01*
X118229789Y-28969086D01*
X118379786Y-28860109D01*
X118379788Y-28860106D01*
X118379792Y-28860104D01*
X118530104Y-28709792D01*
X118530106Y-28709788D01*
X118530109Y-28709786D01*
X118655048Y-28537820D01*
X118655047Y-28537820D01*
X118655051Y-28537816D01*
X118751557Y-28348412D01*
X118817246Y-28146243D01*
X118850500Y-27936287D01*
X118850500Y-27723713D01*
X118817246Y-27513757D01*
X118751557Y-27311588D01*
X118655051Y-27122184D01*
X118655049Y-27122181D01*
X118655048Y-27122179D01*
X118530109Y-26950213D01*
X118379786Y-26799890D01*
X118207820Y-26674951D01*
X118207115Y-26674591D01*
X118199054Y-26670485D01*
X118148259Y-26622512D01*
X118131463Y-26554692D01*
X118153999Y-26488556D01*
X118199054Y-26449515D01*
X118207816Y-26445051D01*
X118240709Y-26421153D01*
X118379786Y-26320109D01*
X118379788Y-26320106D01*
X118379792Y-26320104D01*
X118530104Y-26169792D01*
X118530106Y-26169788D01*
X118530109Y-26169786D01*
X118655048Y-25997820D01*
X118655047Y-25997820D01*
X118655051Y-25997816D01*
X118751557Y-25808412D01*
X118817246Y-25606243D01*
X118850500Y-25396287D01*
X118850500Y-25183713D01*
X118817246Y-24973757D01*
X118751557Y-24771588D01*
X118655051Y-24582184D01*
X118655049Y-24582181D01*
X118655048Y-24582179D01*
X118530109Y-24410213D01*
X118416569Y-24296673D01*
X118383084Y-24235350D01*
X118388068Y-24165658D01*
X118429940Y-24109725D01*
X118460915Y-24092810D01*
X118592331Y-24043796D01*
X118707546Y-23957546D01*
X118793796Y-23842331D01*
X118844091Y-23707483D01*
X118850500Y-23647873D01*
X118850499Y-21852128D01*
X118844091Y-21792517D01*
X118793796Y-21657669D01*
X118793795Y-21657668D01*
X118793793Y-21657664D01*
X118707547Y-21542455D01*
X118707544Y-21542452D01*
X118592335Y-21456206D01*
X118592328Y-21456202D01*
X118457482Y-21405908D01*
X118457483Y-21405908D01*
X118397883Y-21399501D01*
X118397881Y-21399500D01*
X118397873Y-21399500D01*
X118397864Y-21399500D01*
X116602129Y-21399500D01*
X116602123Y-21399501D01*
X116542516Y-21405908D01*
X116407671Y-21456202D01*
X116407664Y-21456206D01*
X116292455Y-21542452D01*
X116292452Y-21542455D01*
X116206206Y-21657664D01*
X116206202Y-21657671D01*
X116155908Y-21792517D01*
X116149501Y-21852116D01*
X116149501Y-21852123D01*
X116149500Y-21852135D01*
X51500500Y-21852135D01*
X51500500Y-19624500D01*
X51520185Y-19557461D01*
X51572989Y-19511706D01*
X51624500Y-19500500D01*
X119875500Y-19500500D01*
X119942539Y-19520185D01*
G37*
%TD.AperFunction*%
%TD*%
D21*
X51000000Y-19000000D02*
X120500000Y-19000000D01*
X120500000Y-49000000D01*
X51000000Y-49000000D01*
X51000000Y-19000000D01*
M02*
