M48
METRIC
T1C0.300
T2C0.800
T3C0.900
T4C1.000
T5C1.300
%
G90
G05
T1
X60.5Y-28.75
X60.5Y-35.75
X63.0Y-23.5
X65.75Y-33.0
X69.5Y-23.5
X70.5Y-30.0
X75.049Y-42.049
X75.5Y-22.75
X76.5Y-25.0
X80.0Y-34.145
X83.25Y-33.5
X83.25Y-37.25
X85.75Y-27.5
X86.25Y-24.25
X86.75Y-32.5
X87.289Y-36.445
X87.75Y-26.5
X88.0Y-27.5
X88.5Y-33.145
X89.25Y-30.75
X89.25Y-33.75
X89.5Y-32.0
X89.5Y-35.5
X90.75Y-31.395
X91.25Y-35.5
X91.25Y-39.0
X92.75Y-29.25
X93.25Y-30.0
X93.775Y-38.5
X93.987Y-27.012
X94.5Y-43.25
X97.25Y-27.0
X98.75Y-44.25
X101.25Y-28.0
X101.25Y-29.25
X101.5Y-46.25
X102.25Y-30.0
X103.0Y-27.0
X103.25Y-30.75
X104.0Y-34.25
X105.0Y-31.0
X105.0Y-32.0
X105.0Y-33.25
T2
X110.0Y-30.5
X110.0Y-38.12
T3
X57.385Y-32.0
X57.385Y-34.5
X57.385Y-36.5
X57.385Y-39.0
T4
X71.67Y-45.75
X74.21Y-45.75
X76.75Y-45.75
X79.29Y-45.75
X81.83Y-45.75
X117.5Y-22.75
X117.5Y-25.29
X117.5Y-27.83
X117.5Y-30.37
X117.5Y-32.91
X117.5Y-35.45
X117.5Y-37.99
X117.5Y-40.53
X117.5Y-43.07
X117.5Y-45.61
T5
G00X52.605Y-36.0
M15
G01X52.605Y-35.0
M16
G05
G00X56.285Y-28.93
M15
G01X57.285Y-28.93
M16
G05
G00X57.285Y-42.07
M15
G01X56.285Y-42.07
M16
G05
M30
